<?xml version="1.0" encoding="UTF-8" standalone="no"?>
<!DOCTYPE svg PUBLIC "-//W3C//DTD SVG 1.1//EN"
 "http://www.w3.org/Graphics/SVG/1.1/DTD/svg11.dtd">
<!-- Generated by graphviz version 2.36.0 (20140111.2315)
 -->
<!-- Title: controllers_diagram Pages: 1 -->
<svg width="415pt" height="535pt"
 viewBox="0.00 0.00 414.76 534.61" xmlns="http://www.w3.org/2000/svg" xmlns:xlink="http://www.w3.org/1999/xlink">
<g id="graph0" class="graph" transform="scale(1 1) rotate(0) translate(4 530.611)">
<title>controllers_diagram</title>
<polygon fill="white" stroke="none" points="-4,4 -4,-530.611 410.756,-530.611 410.756,4 -4,4"/>
<!-- AgentsController -->
<g id="node1" class="node"><title>AgentsController</title>
<path fill="none" stroke="black" d="M45.9153,-0.5C45.9153,-0.5 135.122,-0.5 135.122,-0.5 141.122,-0.5 147.122,-6.5 147.122,-12.5 147.122,-12.5 147.122,-164.5 147.122,-164.5 147.122,-170.5 141.122,-176.5 135.122,-176.5 135.122,-176.5 45.9153,-176.5 45.9153,-176.5 39.9153,-176.5 33.9153,-170.5 33.9153,-164.5 33.9153,-164.5 33.9153,-12.5 33.9153,-12.5 33.9153,-6.5 39.9153,-0.5 45.9153,-0.5"/>
<text text-anchor="middle" x="90.5188" y="-161.3" font-family="Times,serif" font-size="14.00">AgentsController</text>
<polyline fill="none" stroke="black" points="33.9153,-154.5 147.122,-154.5 "/>
<text text-anchor="start" x="41.9153" y="-139.3" font-family="Times,serif" font-size="14.00">create</text>
<text text-anchor="start" x="41.9153" y="-125.3" font-family="Times,serif" font-size="14.00">destroy</text>
<text text-anchor="start" x="41.9153" y="-111.3" font-family="Times,serif" font-size="14.00">edit</text>
<text text-anchor="start" x="41.9153" y="-97.3" font-family="Times,serif" font-size="14.00">index</text>
<text text-anchor="start" x="41.9153" y="-83.3" font-family="Times,serif" font-size="14.00">new</text>
<text text-anchor="start" x="41.9153" y="-69.3" font-family="Times,serif" font-size="14.00">show</text>
<text text-anchor="start" x="41.9153" y="-55.3" font-family="Times,serif" font-size="14.00">update</text>
<polyline fill="none" stroke="black" points="33.9153,-48.5 147.122,-48.5 "/>
<polyline fill="none" stroke="black" points="33.9153,-24.5 147.122,-24.5 "/>
</g>
<!-- AlbumsController -->
<g id="node2" class="node"><title>AlbumsController</title>
<path fill="none" stroke="black" d="M277.451,-1.79244C277.451,-1.79244 371.334,-1.79244 371.334,-1.79244 377.334,-1.79244 383.334,-7.79244 383.334,-13.7924 383.334,-13.7924 383.334,-165.792 383.334,-165.792 383.334,-171.792 377.334,-177.792 371.334,-177.792 371.334,-177.792 277.451,-177.792 277.451,-177.792 271.451,-177.792 265.451,-171.792 265.451,-165.792 265.451,-165.792 265.451,-13.7924 265.451,-13.7924 265.451,-7.79244 271.451,-1.79244 277.451,-1.79244"/>
<text text-anchor="middle" x="324.393" y="-162.592" font-family="Times,serif" font-size="14.00">AlbumsController</text>
<polyline fill="none" stroke="black" points="265.451,-155.792 383.334,-155.792 "/>
<text text-anchor="start" x="273.451" y="-140.592" font-family="Times,serif" font-size="14.00">create</text>
<text text-anchor="start" x="273.451" y="-126.592" font-family="Times,serif" font-size="14.00">destroy</text>
<text text-anchor="start" x="273.451" y="-112.592" font-family="Times,serif" font-size="14.00">edit</text>
<text text-anchor="start" x="273.451" y="-98.5924" font-family="Times,serif" font-size="14.00">index</text>
<text text-anchor="start" x="273.451" y="-84.5924" font-family="Times,serif" font-size="14.00">new</text>
<text text-anchor="start" x="273.451" y="-70.5924" font-family="Times,serif" font-size="14.00">show</text>
<text text-anchor="start" x="273.451" y="-56.5924" font-family="Times,serif" font-size="14.00">update</text>
<polyline fill="none" stroke="black" points="265.451,-49.7924 383.334,-49.7924 "/>
<polyline fill="none" stroke="black" points="265.451,-25.7924 383.334,-25.7924 "/>
</g>
<!-- ApplicationController -->
<g id="node3" class="node"><title>ApplicationController</title>
<path fill="none" stroke="black" d="M150.059,-190.442C150.059,-190.442 272.68,-190.442 272.68,-190.442 278.68,-190.442 284.68,-196.442 284.68,-202.442 284.68,-202.442 284.68,-270.442 284.68,-270.442 284.68,-276.442 278.68,-282.442 272.68,-282.442 272.68,-282.442 150.059,-282.442 150.059,-282.442 144.059,-282.442 138.059,-276.442 138.059,-270.442 138.059,-270.442 138.059,-202.442 138.059,-202.442 138.059,-196.442 144.059,-190.442 150.059,-190.442"/>
<text text-anchor="middle" x="211.369" y="-267.242" font-family="Times,serif" font-size="14.00">ApplicationController</text>
<polyline fill="none" stroke="black" points="138.059,-260.442 284.68,-260.442 "/>
<text text-anchor="start" x="146.059" y="-245.242" font-family="Times,serif" font-size="14.00">active_main_menu_tag</text>
<polyline fill="none" stroke="black" points="138.059,-238.442 284.68,-238.442 "/>
<polyline fill="none" stroke="black" points="138.059,-214.442 284.68,-214.442 "/>
</g>
<!-- ApplicationController&#45;&gt;AgentsController -->
<g id="edge1" class="edge"><title>ApplicationController&#45;&gt;AgentsController</title>
<path fill="none" stroke="black" d="M173.463,-190.038C165.156,-179.869 156.187,-168.89 147.322,-158.038"/>
</g>
<!-- ApplicationController&#45;&gt;AlbumsController -->
<g id="edge2" class="edge"><title>ApplicationController&#45;&gt;AlbumsController</title>
<path fill="none" stroke="black" d="M247.131,-190.041C252.951,-182.489 259.113,-174.494 265.315,-166.446"/>
</g>
<!-- BandsController -->
<g id="node4" class="node"><title>BandsController</title>
<path fill="none" stroke="black" d="M151.961,-350.111C151.961,-350.111 236.506,-350.111 236.506,-350.111 242.506,-350.111 248.506,-356.111 248.506,-362.111 248.506,-362.111 248.506,-514.111 248.506,-514.111 248.506,-520.111 242.506,-526.111 236.506,-526.111 236.506,-526.111 151.961,-526.111 151.961,-526.111 145.961,-526.111 139.961,-520.111 139.961,-514.111 139.961,-514.111 139.961,-362.111 139.961,-362.111 139.961,-356.111 145.961,-350.111 151.961,-350.111"/>
<text text-anchor="middle" x="194.233" y="-510.911" font-family="Times,serif" font-size="14.00">BandsController</text>
<polyline fill="none" stroke="black" points="139.961,-504.111 248.506,-504.111 "/>
<text text-anchor="start" x="147.961" y="-488.911" font-family="Times,serif" font-size="14.00">create</text>
<text text-anchor="start" x="147.961" y="-474.911" font-family="Times,serif" font-size="14.00">destroy</text>
<text text-anchor="start" x="147.961" y="-460.911" font-family="Times,serif" font-size="14.00">edit</text>
<text text-anchor="start" x="147.961" y="-446.911" font-family="Times,serif" font-size="14.00">index</text>
<text text-anchor="start" x="147.961" y="-432.911" font-family="Times,serif" font-size="14.00">new</text>
<text text-anchor="start" x="147.961" y="-418.911" font-family="Times,serif" font-size="14.00">show</text>
<text text-anchor="start" x="147.961" y="-404.911" font-family="Times,serif" font-size="14.00">update</text>
<polyline fill="none" stroke="black" points="139.961,-398.111 248.506,-398.111 "/>
<polyline fill="none" stroke="black" points="139.961,-374.111 248.506,-374.111 "/>
</g>
<!-- ApplicationController&#45;&gt;BandsController -->
<g id="edge3" class="edge"><title>ApplicationController&#45;&gt;BandsController</title>
<path fill="none" stroke="black" d="M207.459,-282.456C205.76,-302.451 203.71,-326.578 201.737,-349.805"/>
</g>
<!-- HomeController -->
<g id="node5" class="node"><title>HomeController</title>
<path fill="none" stroke="black" d="M310.997,-322.596C310.997,-322.596 394.756,-322.596 394.756,-322.596 400.756,-322.596 406.756,-328.596 406.756,-334.596 406.756,-334.596 406.756,-402.596 406.756,-402.596 406.756,-408.596 400.756,-414.596 394.756,-414.596 394.756,-414.596 310.997,-414.596 310.997,-414.596 304.997,-414.596 298.997,-408.596 298.997,-402.596 298.997,-402.596 298.997,-334.596 298.997,-334.596 298.997,-328.596 304.997,-322.596 310.997,-322.596"/>
<text text-anchor="middle" x="352.876" y="-399.396" font-family="Times,serif" font-size="14.00">HomeController</text>
<polyline fill="none" stroke="black" points="298.997,-392.596 406.756,-392.596 "/>
<text text-anchor="start" x="306.997" y="-377.396" font-family="Times,serif" font-size="14.00">index</text>
<polyline fill="none" stroke="black" points="298.997,-370.596 406.756,-370.596 "/>
<polyline fill="none" stroke="black" points="298.997,-346.596 406.756,-346.596 "/>
</g>
<!-- ApplicationController&#45;&gt;HomeController -->
<g id="edge4" class="edge"><title>ApplicationController&#45;&gt;HomeController</title>
<path fill="none" stroke="black" d="M260.862,-282.663C274.57,-295.465 289.452,-309.364 303.173,-322.178"/>
</g>
<!-- TracksController -->
<g id="node6" class="node"><title>TracksController</title>
<path fill="none" stroke="black" d="M12,-266.909C12,-266.909 99.1494,-266.909 99.1494,-266.909 105.149,-266.909 111.149,-272.909 111.149,-278.909 111.149,-278.909 111.149,-430.909 111.149,-430.909 111.149,-436.909 105.149,-442.909 99.1494,-442.909 99.1494,-442.909 12,-442.909 12,-442.909 6,-442.909 0,-436.909 0,-430.909 0,-430.909 0,-278.909 0,-278.909 0,-272.909 6,-266.909 12,-266.909"/>
<text text-anchor="middle" x="55.5747" y="-427.709" font-family="Times,serif" font-size="14.00">TracksController</text>
<polyline fill="none" stroke="black" points="0,-420.909 111.149,-420.909 "/>
<text text-anchor="start" x="8" y="-405.709" font-family="Times,serif" font-size="14.00">create</text>
<text text-anchor="start" x="8" y="-391.709" font-family="Times,serif" font-size="14.00">destroy</text>
<text text-anchor="start" x="8" y="-377.709" font-family="Times,serif" font-size="14.00">edit</text>
<text text-anchor="start" x="8" y="-363.709" font-family="Times,serif" font-size="14.00">index</text>
<text text-anchor="start" x="8" y="-349.709" font-family="Times,serif" font-size="14.00">new</text>
<text text-anchor="start" x="8" y="-335.709" font-family="Times,serif" font-size="14.00">show</text>
<text text-anchor="start" x="8" y="-321.709" font-family="Times,serif" font-size="14.00">update</text>
<polyline fill="none" stroke="black" points="0,-314.909 111.149,-314.909 "/>
<polyline fill="none" stroke="black" points="0,-290.909 111.149,-290.909 "/>
</g>
<!-- ApplicationController&#45;&gt;TracksController -->
<g id="edge5" class="edge"><title>ApplicationController&#45;&gt;TracksController</title>
<path fill="none" stroke="black" d="M150.689,-282.584C137.702,-292.459 124.044,-302.845 111.256,-312.569"/>
</g>
</g>
</svg>
