<?xml version="1.0" encoding="UTF-8" standalone="no"?>
<!DOCTYPE svg PUBLIC "-//W3C//DTD SVG 1.1//EN"
 "http://www.w3.org/Graphics/SVG/1.1/DTD/svg11.dtd">
<!-- Generated by graphviz version 2.36.0 (20140111.2315)
 -->
<!-- Title: controllers_diagram Pages: 1 -->
<svg width="363pt" height="191pt"
 viewBox="0.00 0.00 362.92 190.86" xmlns="http://www.w3.org/2000/svg" xmlns:xlink="http://www.w3.org/1999/xlink">
<g id="graph0" class="graph" transform="scale(1 1) rotate(0) translate(4 186.86)">
<title>controllers_diagram</title>
<polygon fill="white" stroke="none" points="-4,4 -4,-186.86 358.917,-186.86 358.917,4 -4,4"/>
<!-- AgentsController -->
<g id="node1" class="node"><title>AgentsController</title>
<ellipse fill="none" stroke="black" cx="101.875" cy="-18" rx="71.5204" ry="18"/>
<text text-anchor="middle" x="101.875" y="-13.8" font-family="Times,serif" font-size="14.00">AgentsController</text>
</g>
<!-- AlbumsController -->
<g id="node2" class="node"><title>AlbumsController</title>
<ellipse fill="none" stroke="black" cx="259.631" cy="-19.5669" rx="74.4275" ry="18"/>
<text text-anchor="middle" x="259.631" y="-15.3669" font-family="Times,serif" font-size="14.00">AlbumsController</text>
</g>
<!-- ApplicationController -->
<g id="node3" class="node"><title>ApplicationController</title>
<ellipse fill="none" stroke="black" cx="179.997" cy="-83.536" rx="88.417" ry="18"/>
<text text-anchor="middle" x="179.997" y="-79.336" font-family="Times,serif" font-size="14.00">ApplicationController</text>
</g>
<!-- ApplicationController&#45;&gt;AgentsController -->
<g id="edge1" class="edge"><title>ApplicationController&#45;&gt;AgentsController</title>
<path fill="none" stroke="black" d="M159.062,-65.9735C147.763,-56.4947 133.863,-44.8348 122.597,-35.3837"/>
</g>
<!-- ApplicationController&#45;&gt;AlbumsController -->
<g id="edge2" class="edge"><title>ApplicationController&#45;&gt;AlbumsController</title>
<path fill="none" stroke="black" d="M201.758,-66.0561C213.086,-56.956 226.889,-45.8685 238.173,-36.8041"/>
</g>
<!-- BandsController -->
<g id="node4" class="node"><title>BandsController</title>
<ellipse fill="none" stroke="black" cx="178.352" cy="-164.86" rx="68.6305" ry="18"/>
<text text-anchor="middle" x="178.352" y="-160.66" font-family="Times,serif" font-size="14.00">BandsController</text>
</g>
<!-- ApplicationController&#45;&gt;BandsController -->
<g id="edge3" class="edge"><title>ApplicationController&#45;&gt;BandsController</title>
<path fill="none" stroke="black" d="M179.632,-101.584C179.362,-114.968 178.994,-133.143 178.722,-146.581"/>
</g>
<!-- HomeController -->
<g id="node5" class="node"><title>HomeController</title>
<ellipse fill="none" stroke="black" cx="286.849" cy="-121.251" rx="68.1374" ry="18"/>
<text text-anchor="middle" x="286.849" y="-117.051" font-family="Times,serif" font-size="14.00">HomeController</text>
</g>
<!-- ApplicationController&#45;&gt;HomeController -->
<g id="edge4" class="edge"><title>ApplicationController&#45;&gt;HomeController</title>
<path fill="none" stroke="black" d="M224.384,-99.2031C231.493,-101.713 238.823,-104.3 245.85,-106.78"/>
</g>
<!-- TracksController -->
<g id="node6" class="node"><title>TracksController</title>
<ellipse fill="none" stroke="black" cx="70.2104" cy="-118.07" rx="70.4215" ry="18"/>
<text text-anchor="middle" x="70.2104" y="-113.87" font-family="Times,serif" font-size="14.00">TracksController</text>
</g>
<!-- ApplicationController&#45;&gt;TracksController -->
<g id="edge5" class="edge"><title>ApplicationController&#45;&gt;TracksController</title>
<path fill="none" stroke="black" d="M131.843,-98.683C126.197,-100.459 120.454,-102.265 114.859,-104.025"/>
</g>
</g>
</svg>
