<?xml version="1.0" encoding="UTF-8" standalone="no"?>
<!DOCTYPE svg PUBLIC "-//W3C//DTD SVG 1.1//EN"
 "http://www.w3.org/Graphics/SVG/1.1/DTD/svg11.dtd">
<!-- Generated by graphviz version 2.36.0 (20140111.2315)
 -->
<!-- Title: controllers_diagram Pages: 1 -->
<svg width="601pt" height="292pt"
 viewBox="0.00 0.00 601.01 291.69" xmlns="http://www.w3.org/2000/svg" xmlns:xlink="http://www.w3.org/1999/xlink">
<g id="graph0" class="graph" transform="scale(1 1) rotate(0) translate(4 287.691)">
<title>controllers_diagram</title>
<polygon fill="white" stroke="none" points="-4,4 -4,-287.691 597.008,-287.691 597.008,4 -4,4"/>
<!-- AgentsController -->
<g id="node1" class="node"><title>AgentsController</title>
<ellipse fill="none" stroke="black" cx="71.5102" cy="-46.471" rx="71.5204" ry="18"/>
<text text-anchor="middle" x="71.5102" y="-42.271" font-family="Times,serif" font-size="14.00">AgentsController</text>
</g>
<!-- AlbumsController -->
<g id="node2" class="node"><title>AlbumsController</title>
<ellipse fill="none" stroke="black" cx="517.915" cy="-45.4399" rx="74.4275" ry="18"/>
<text text-anchor="middle" x="517.915" y="-41.2399" font-family="Times,serif" font-size="14.00">AlbumsController</text>
</g>
<!-- ApplicationController -->
<g id="node3" class="node"><title>ApplicationController</title>
<ellipse fill="none" stroke="black" cx="297.507" cy="-141.905" rx="88.417" ry="18"/>
<text text-anchor="middle" x="297.507" y="-137.705" font-family="Times,serif" font-size="14.00">ApplicationController</text>
</g>
<!-- ApplicationController&#45;&gt;AgentsController -->
<g id="edge1" class="edge"><title>ApplicationController&#45;&gt;AgentsController</title>
<path fill="none" stroke="black" d="M258.913,-125.608C216.806,-107.827 149.886,-79.5677 108.445,-62.0678"/>
</g>
<!-- ApplicationController&#45;&gt;AlbumsController -->
<g id="edge2" class="edge"><title>ApplicationController&#45;&gt;AlbumsController</title>
<path fill="none" stroke="black" d="M334.896,-125.541C375.918,-107.587 441.303,-78.9705 481.808,-61.2427"/>
</g>
<!-- ArtistsController -->
<g id="node4" class="node"><title>ArtistsController</title>
<ellipse fill="none" stroke="black" cx="222.899" cy="-265.691" rx="70.0841" ry="18"/>
<text text-anchor="middle" x="222.899" y="-261.491" font-family="Times,serif" font-size="14.00">ArtistsController</text>
</g>
<!-- ApplicationController&#45;&gt;ArtistsController -->
<g id="edge3" class="edge"><title>ApplicationController&#45;&gt;ArtistsController</title>
<path fill="none" stroke="black" d="M286.658,-159.905C272.513,-183.374 247.912,-224.19 233.761,-247.67"/>
</g>
<!-- BandsController -->
<g id="node5" class="node"><title>BandsController</title>
<ellipse fill="none" stroke="black" cx="382.034" cy="-261.332" rx="68.6305" ry="18"/>
<text text-anchor="middle" x="382.034" y="-257.132" font-family="Times,serif" font-size="14.00">BandsController</text>
</g>
<!-- ApplicationController&#45;&gt;BandsController -->
<g id="edge4" class="edge"><title>ApplicationController&#45;&gt;BandsController</title>
<path fill="none" stroke="black" d="M310.161,-159.785C326.096,-182.299 353.317,-220.759 369.293,-243.33"/>
</g>
<!-- HomeController -->
<g id="node6" class="node"><title>HomeController</title>
<ellipse fill="none" stroke="black" cx="76.4326" cy="-238.397" rx="68.1374" ry="18"/>
<text text-anchor="middle" x="76.4326" y="-234.197" font-family="Times,serif" font-size="14.00">HomeController</text>
</g>
<!-- ApplicationController&#45;&gt;HomeController -->
<g id="edge5" class="edge"><title>ApplicationController&#45;&gt;HomeController</title>
<path fill="none" stroke="black" d="M260.005,-158.274C218.613,-176.34 152.49,-205.201 111.921,-222.908"/>
</g>
<!-- StintsController -->
<g id="node7" class="node"><title>StintsController</title>
<ellipse fill="none" stroke="black" cx="212.663" cy="-22.6303" rx="66.7185" ry="18"/>
<text text-anchor="middle" x="212.663" y="-18.4303" font-family="Times,serif" font-size="14.00">StintsController</text>
</g>
<!-- ApplicationController&#45;&gt;StintsController -->
<g id="edge6" class="edge"><title>ApplicationController&#45;&gt;StintsController</title>
<path fill="none" stroke="black" d="M284.805,-124.049C268.81,-101.563 241.487,-63.1523 225.452,-40.609"/>
</g>
<!-- SuperFansController -->
<g id="node8" class="node"><title>SuperFansController</title>
<ellipse fill="none" stroke="black" cx="371.822" cy="-18" rx="83.5908" ry="18"/>
<text text-anchor="middle" x="371.822" y="-13.8" font-family="Times,serif" font-size="14.00">SuperFansController</text>
</g>
<!-- ApplicationController&#45;&gt;SuperFansController -->
<g id="edge7" class="edge"><title>ApplicationController&#45;&gt;SuperFansController</title>
<path fill="none" stroke="black" d="M308.313,-123.888C322.402,-100.397 346.907,-59.541 361.003,-36.0386"/>
</g>
<!-- TracksController -->
<g id="node9" class="node"><title>TracksController</title>
<ellipse fill="none" stroke="black" cx="522.798" cy="-237.287" rx="70.4215" ry="18"/>
<text text-anchor="middle" x="522.798" y="-233.087" font-family="Times,serif" font-size="14.00">TracksController</text>
</g>
<!-- ApplicationController&#45;&gt;TracksController -->
<g id="edge8" class="edge"><title>ApplicationController&#45;&gt;TracksController</title>
<path fill="none" stroke="black" d="M335.98,-158.194C378.081,-176.018 445.066,-204.378 486.349,-221.856"/>
</g>
</g>
</svg>
