<?xml version="1.0" encoding="UTF-8" standalone="no"?>
<!DOCTYPE svg PUBLIC "-//W3C//DTD SVG 1.1//EN"
 "http://www.w3.org/Graphics/SVG/1.1/DTD/svg11.dtd">
<!-- Generated by graphviz version 2.36.0 (20140111.2315)
 -->
<!-- Title: controllers_diagram Pages: 1 -->
<svg width="685pt" height="721pt"
 viewBox="0.00 0.00 685.38 721.27" xmlns="http://www.w3.org/2000/svg" xmlns:xlink="http://www.w3.org/1999/xlink">
<g id="graph0" class="graph" transform="scale(1 1) rotate(0) translate(4 717.274)">
<title>controllers_diagram</title>
<polygon fill="white" stroke="none" points="-4,4 -4,-717.274 681.375,-717.274 681.375,4 -4,4"/>
<!-- _diagram_info -->
<g id="node1" class="node"><title>_diagram_info</title>
<text text-anchor="start" x="478" y="-340.6" font-family="Times,serif" font-size="13.00">Controllers diagram</text>
<text text-anchor="start" x="478" y="-327.6" font-family="Times,serif" font-size="13.00">Date: Apr 24 2014 &#45; 16:04</text>
<text text-anchor="start" x="478" y="-314.6" font-family="Times,serif" font-size="13.00">Migration version: 20140423235250</text>
<text text-anchor="start" x="478" y="-301.6" font-family="Times,serif" font-size="13.00">Generated by RailRoady 1.1.1</text>
<text text-anchor="start" x="478" y="-288.6" font-family="Times,serif" font-size="13.00">http://railroady.prestonlee.com</text>
</g>
<!-- AgentsController -->
<g id="node2" class="node"><title>AgentsController</title>
<path fill="none" stroke="black" d="M50.6134,-0.5C50.6134,-0.5 139.82,-0.5 139.82,-0.5 145.82,-0.5 151.82,-6.5 151.82,-12.5 151.82,-12.5 151.82,-190.5 151.82,-190.5 151.82,-196.5 145.82,-202.5 139.82,-202.5 139.82,-202.5 50.6134,-202.5 50.6134,-202.5 44.6134,-202.5 38.6134,-196.5 38.6134,-190.5 38.6134,-190.5 38.6134,-12.5 38.6134,-12.5 38.6134,-6.5 44.6134,-0.5 50.6134,-0.5"/>
<text text-anchor="middle" x="95.2169" y="-187.3" font-family="Times,serif" font-size="14.00">AgentsController</text>
<polyline fill="none" stroke="black" points="38.6134,-180.5 151.82,-180.5 "/>
<text text-anchor="start" x="46.6134" y="-165.3" font-family="Times,serif" font-size="14.00">create</text>
<text text-anchor="start" x="46.6134" y="-151.3" font-family="Times,serif" font-size="14.00">destroy</text>
<text text-anchor="start" x="46.6134" y="-137.3" font-family="Times,serif" font-size="14.00">edit</text>
<text text-anchor="start" x="46.6134" y="-123.3" font-family="Times,serif" font-size="14.00">index</text>
<text text-anchor="start" x="46.6134" y="-109.3" font-family="Times,serif" font-size="14.00">new</text>
<text text-anchor="start" x="46.6134" y="-95.3" font-family="Times,serif" font-size="14.00">show</text>
<text text-anchor="start" x="46.6134" y="-81.3" font-family="Times,serif" font-size="14.00">update</text>
<polyline fill="none" stroke="black" points="38.6134,-74.5 151.82,-74.5 "/>
<polyline fill="none" stroke="black" points="38.6134,-50.5 151.82,-50.5 "/>
<text text-anchor="start" x="46.6134" y="-35.3" font-family="Times,serif" font-size="14.00">_layout</text>
<text text-anchor="start" x="46.6134" y="-21.3" font-family="Times,serif" font-size="14.00">agent_params</text>
<text text-anchor="start" x="46.6134" y="-7.3" font-family="Times,serif" font-size="14.00">set_agent</text>
</g>
<!-- AlbumsController -->
<g id="node3" class="node"><title>AlbumsController</title>
<path fill="none" stroke="black" d="M350.834,-9.25136C350.834,-9.25136 444.716,-9.25136 444.716,-9.25136 450.716,-9.25136 456.716,-15.2514 456.716,-21.2514 456.716,-21.2514 456.716,-199.251 456.716,-199.251 456.716,-205.251 450.716,-211.251 444.716,-211.251 444.716,-211.251 350.834,-211.251 350.834,-211.251 344.834,-211.251 338.834,-205.251 338.834,-199.251 338.834,-199.251 338.834,-21.2514 338.834,-21.2514 338.834,-15.2514 344.834,-9.25136 350.834,-9.25136"/>
<text text-anchor="middle" x="397.775" y="-196.051" font-family="Times,serif" font-size="14.00">AlbumsController</text>
<polyline fill="none" stroke="black" points="338.834,-189.251 456.716,-189.251 "/>
<text text-anchor="start" x="346.834" y="-174.051" font-family="Times,serif" font-size="14.00">create</text>
<text text-anchor="start" x="346.834" y="-160.051" font-family="Times,serif" font-size="14.00">destroy</text>
<text text-anchor="start" x="346.834" y="-146.051" font-family="Times,serif" font-size="14.00">edit</text>
<text text-anchor="start" x="346.834" y="-132.051" font-family="Times,serif" font-size="14.00">index</text>
<text text-anchor="start" x="346.834" y="-118.051" font-family="Times,serif" font-size="14.00">new</text>
<text text-anchor="start" x="346.834" y="-104.051" font-family="Times,serif" font-size="14.00">show</text>
<text text-anchor="start" x="346.834" y="-90.0514" font-family="Times,serif" font-size="14.00">update</text>
<polyline fill="none" stroke="black" points="338.834,-83.2514 456.716,-83.2514 "/>
<polyline fill="none" stroke="black" points="338.834,-59.2514 456.716,-59.2514 "/>
<text text-anchor="start" x="346.834" y="-44.0514" font-family="Times,serif" font-size="14.00">_layout</text>
<text text-anchor="start" x="346.834" y="-30.0514" font-family="Times,serif" font-size="14.00">album_params</text>
<text text-anchor="start" x="346.834" y="-16.0514" font-family="Times,serif" font-size="14.00">set_album</text>
</g>
<!-- ApplicationController -->
<g id="node4" class="node"><title>ApplicationController</title>
<path fill="none" stroke="black" d="M242.649,-286.984C242.649,-286.984 365.27,-286.984 365.27,-286.984 371.27,-286.984 377.27,-292.984 377.27,-298.984 377.27,-298.984 377.27,-364.984 377.27,-364.984 377.27,-370.984 371.27,-376.984 365.27,-376.984 365.27,-376.984 242.649,-376.984 242.649,-376.984 236.649,-376.984 230.649,-370.984 230.649,-364.984 230.649,-364.984 230.649,-298.984 230.649,-298.984 230.649,-292.984 236.649,-286.984 242.649,-286.984"/>
<text text-anchor="middle" x="303.96" y="-361.784" font-family="Times,serif" font-size="14.00">ApplicationController</text>
<polyline fill="none" stroke="black" points="230.649,-354.984 377.27,-354.984 "/>
<text text-anchor="start" x="238.649" y="-339.784" font-family="Times,serif" font-size="14.00">active_main_menu_tag</text>
<polyline fill="none" stroke="black" points="230.649,-332.984 377.27,-332.984 "/>
<polyline fill="none" stroke="black" points="230.649,-308.984 377.27,-308.984 "/>
<text text-anchor="start" x="238.649" y="-293.784" font-family="Times,serif" font-size="14.00">_layout</text>
</g>
<!-- ApplicationController&#45;&gt;AgentsController -->
<g id="edge1" class="edge"><title>ApplicationController&#45;&gt;AgentsController</title>
<path fill="none" stroke="black" d="M262.968,-286.723C231.266,-251.719 187.009,-202.853 151.913,-164.101"/>
</g>
<!-- ApplicationController&#45;&gt;AlbumsController -->
<g id="edge2" class="edge"><title>ApplicationController&#45;&gt;AlbumsController</title>
<path fill="none" stroke="black" d="M323.058,-286.846C332.272,-265.067 343.728,-237.991 354.879,-211.635"/>
</g>
<!-- BandsController -->
<g id="node5" class="node"><title>BandsController</title>
<path fill="none" stroke="black" d="M83.3335,-510.774C83.3335,-510.774 167.878,-510.774 167.878,-510.774 173.878,-510.774 179.878,-516.774 179.878,-522.774 179.878,-522.774 179.878,-700.774 179.878,-700.774 179.878,-706.774 173.878,-712.774 167.878,-712.774 167.878,-712.774 83.3335,-712.774 83.3335,-712.774 77.3335,-712.774 71.3335,-706.774 71.3335,-700.774 71.3335,-700.774 71.3335,-522.774 71.3335,-522.774 71.3335,-516.774 77.3335,-510.774 83.3335,-510.774"/>
<text text-anchor="middle" x="125.606" y="-697.574" font-family="Times,serif" font-size="14.00">BandsController</text>
<polyline fill="none" stroke="black" points="71.3335,-690.774 179.878,-690.774 "/>
<text text-anchor="start" x="79.3335" y="-675.574" font-family="Times,serif" font-size="14.00">create</text>
<text text-anchor="start" x="79.3335" y="-661.574" font-family="Times,serif" font-size="14.00">destroy</text>
<text text-anchor="start" x="79.3335" y="-647.574" font-family="Times,serif" font-size="14.00">edit</text>
<text text-anchor="start" x="79.3335" y="-633.574" font-family="Times,serif" font-size="14.00">index</text>
<text text-anchor="start" x="79.3335" y="-619.574" font-family="Times,serif" font-size="14.00">new</text>
<text text-anchor="start" x="79.3335" y="-605.574" font-family="Times,serif" font-size="14.00">show</text>
<text text-anchor="start" x="79.3335" y="-591.574" font-family="Times,serif" font-size="14.00">update</text>
<polyline fill="none" stroke="black" points="71.3335,-584.774 179.878,-584.774 "/>
<polyline fill="none" stroke="black" points="71.3335,-560.774 179.878,-560.774 "/>
<text text-anchor="start" x="79.3335" y="-545.574" font-family="Times,serif" font-size="14.00">_layout</text>
<text text-anchor="start" x="79.3335" y="-531.574" font-family="Times,serif" font-size="14.00">band_params</text>
<text text-anchor="start" x="79.3335" y="-517.574" font-family="Times,serif" font-size="14.00">set_band</text>
</g>
<!-- ApplicationController&#45;&gt;BandsController -->
<g id="edge3" class="edge"><title>ApplicationController&#45;&gt;BandsController</title>
<path fill="none" stroke="black" d="M275.106,-377.248C249.472,-417.46 211.321,-477.31 179.975,-526.483"/>
</g>
<!-- HomeController -->
<g id="node6" class="node"><title>HomeController</title>
<path fill="none" stroke="black" d="M370.613,-509.071C370.613,-509.071 454.371,-509.071 454.371,-509.071 460.371,-509.071 466.371,-515.071 466.371,-521.071 466.371,-521.071 466.371,-587.071 466.371,-587.071 466.371,-593.071 460.371,-599.071 454.371,-599.071 454.371,-599.071 370.613,-599.071 370.613,-599.071 364.613,-599.071 358.613,-593.071 358.613,-587.071 358.613,-587.071 358.613,-521.071 358.613,-521.071 358.613,-515.071 364.613,-509.071 370.613,-509.071"/>
<text text-anchor="middle" x="412.492" y="-583.871" font-family="Times,serif" font-size="14.00">HomeController</text>
<polyline fill="none" stroke="black" points="358.613,-577.071 466.371,-577.071 "/>
<text text-anchor="start" x="366.613" y="-561.871" font-family="Times,serif" font-size="14.00">index</text>
<polyline fill="none" stroke="black" points="358.613,-555.071 466.371,-555.071 "/>
<polyline fill="none" stroke="black" points="358.613,-531.071 466.371,-531.071 "/>
<text text-anchor="start" x="366.613" y="-515.871" font-family="Times,serif" font-size="14.00">_layout</text>
</g>
<!-- ApplicationController&#45;&gt;HomeController -->
<g id="edge4" class="edge"><title>ApplicationController&#45;&gt;HomeController</title>
<path fill="none" stroke="black" d="M326.054,-377.194C344.833,-415.623 371.658,-470.514 390.429,-508.924"/>
</g>
<!-- TracksController -->
<g id="node7" class="node"><title>TracksController</title>
<path fill="none" stroke="black" d="M12,-283.089C12,-283.089 99.1494,-283.089 99.1494,-283.089 105.149,-283.089 111.149,-289.089 111.149,-295.089 111.149,-295.089 111.149,-473.089 111.149,-473.089 111.149,-479.089 105.149,-485.089 99.1494,-485.089 99.1494,-485.089 12,-485.089 12,-485.089 6,-485.089 0,-479.089 0,-473.089 0,-473.089 0,-295.089 0,-295.089 0,-289.089 6,-283.089 12,-283.089"/>
<text text-anchor="middle" x="55.5747" y="-469.889" font-family="Times,serif" font-size="14.00">TracksController</text>
<polyline fill="none" stroke="black" points="0,-463.089 111.149,-463.089 "/>
<text text-anchor="start" x="8" y="-447.889" font-family="Times,serif" font-size="14.00">create</text>
<text text-anchor="start" x="8" y="-433.889" font-family="Times,serif" font-size="14.00">destroy</text>
<text text-anchor="start" x="8" y="-419.889" font-family="Times,serif" font-size="14.00">edit</text>
<text text-anchor="start" x="8" y="-405.889" font-family="Times,serif" font-size="14.00">index</text>
<text text-anchor="start" x="8" y="-391.889" font-family="Times,serif" font-size="14.00">new</text>
<text text-anchor="start" x="8" y="-377.889" font-family="Times,serif" font-size="14.00">show</text>
<text text-anchor="start" x="8" y="-363.889" font-family="Times,serif" font-size="14.00">update</text>
<polyline fill="none" stroke="black" points="0,-357.089 111.149,-357.089 "/>
<polyline fill="none" stroke="black" points="0,-333.089 111.149,-333.089 "/>
<text text-anchor="start" x="8" y="-317.889" font-family="Times,serif" font-size="14.00">_layout</text>
<text text-anchor="start" x="8" y="-303.889" font-family="Times,serif" font-size="14.00">set_track</text>
<text text-anchor="start" x="8" y="-289.889" font-family="Times,serif" font-size="14.00">track_params</text>
</g>
<!-- ApplicationController&#45;&gt;TracksController -->
<g id="edge5" class="edge"><title>ApplicationController&#45;&gt;TracksController</title>
<path fill="none" stroke="black" d="M230.444,-347.406C192.392,-355.388 146.679,-364.978 111.536,-372.35"/>
</g>
</g>
</svg>
