<?xml version="1.0" encoding="UTF-8" standalone="no"?>
<!DOCTYPE svg PUBLIC "-//W3C//DTD SVG 1.1//EN"
 "http://www.w3.org/Graphics/SVG/1.1/DTD/svg11.dtd">
<!-- Generated by graphviz version 2.36.0 (20140111.2315)
 -->
<!-- Title: controllers_diagram Pages: 1 -->
<svg width="554pt" height="781pt"
 viewBox="0.00 0.00 554.11 780.74" xmlns="http://www.w3.org/2000/svg" xmlns:xlink="http://www.w3.org/1999/xlink">
<g id="graph0" class="graph" transform="scale(1 1) rotate(0) translate(4 776.736)">
<title>controllers_diagram</title>
<polygon fill="white" stroke="none" points="-4,4 -4,-776.736 550.109,-776.736 550.109,4 -4,4"/>
<!-- AgentsController -->
<g id="node1" class="node"><title>AgentsController</title>
<path fill="none" stroke="black" d="M12,-204.513C12,-204.513 101.207,-204.513 101.207,-204.513 107.207,-204.513 113.207,-210.513 113.207,-216.513 113.207,-216.513 113.207,-368.513 113.207,-368.513 113.207,-374.513 107.207,-380.513 101.207,-380.513 101.207,-380.513 12,-380.513 12,-380.513 6,-380.513 0,-374.513 0,-368.513 0,-368.513 0,-216.513 0,-216.513 0,-210.513 6,-204.513 12,-204.513"/>
<text text-anchor="middle" x="56.6035" y="-365.313" font-family="Times,serif" font-size="14.00">AgentsController</text>
<polyline fill="none" stroke="black" points="0,-358.513 113.207,-358.513 "/>
<text text-anchor="start" x="8" y="-343.313" font-family="Times,serif" font-size="14.00">create</text>
<text text-anchor="start" x="8" y="-329.313" font-family="Times,serif" font-size="14.00">destroy</text>
<text text-anchor="start" x="8" y="-315.313" font-family="Times,serif" font-size="14.00">edit</text>
<text text-anchor="start" x="8" y="-301.313" font-family="Times,serif" font-size="14.00">index</text>
<text text-anchor="start" x="8" y="-287.313" font-family="Times,serif" font-size="14.00">new</text>
<text text-anchor="start" x="8" y="-273.313" font-family="Times,serif" font-size="14.00">show</text>
<text text-anchor="start" x="8" y="-259.313" font-family="Times,serif" font-size="14.00">update</text>
<polyline fill="none" stroke="black" points="0,-252.513 113.207,-252.513 "/>
<polyline fill="none" stroke="black" points="0,-228.513 113.207,-228.513 "/>
</g>
<!-- AlbumsController -->
<g id="node2" class="node"><title>AlbumsController</title>
<path fill="none" stroke="black" d="M440.226,-185.343C440.226,-185.343 534.109,-185.343 534.109,-185.343 540.109,-185.343 546.109,-191.343 546.109,-197.343 546.109,-197.343 546.109,-349.343 546.109,-349.343 546.109,-355.343 540.109,-361.343 534.109,-361.343 534.109,-361.343 440.226,-361.343 440.226,-361.343 434.226,-361.343 428.226,-355.343 428.226,-349.343 428.226,-349.343 428.226,-197.343 428.226,-197.343 428.226,-191.343 434.226,-185.343 440.226,-185.343"/>
<text text-anchor="middle" x="487.168" y="-346.143" font-family="Times,serif" font-size="14.00">AlbumsController</text>
<polyline fill="none" stroke="black" points="428.226,-339.343 546.109,-339.343 "/>
<text text-anchor="start" x="436.226" y="-324.143" font-family="Times,serif" font-size="14.00">create</text>
<text text-anchor="start" x="436.226" y="-310.143" font-family="Times,serif" font-size="14.00">destroy</text>
<text text-anchor="start" x="436.226" y="-296.143" font-family="Times,serif" font-size="14.00">edit</text>
<text text-anchor="start" x="436.226" y="-282.143" font-family="Times,serif" font-size="14.00">index</text>
<text text-anchor="start" x="436.226" y="-268.143" font-family="Times,serif" font-size="14.00">new</text>
<text text-anchor="start" x="436.226" y="-254.143" font-family="Times,serif" font-size="14.00">show</text>
<text text-anchor="start" x="436.226" y="-240.143" font-family="Times,serif" font-size="14.00">update</text>
<polyline fill="none" stroke="black" points="428.226,-233.343 546.109,-233.343 "/>
<polyline fill="none" stroke="black" points="428.226,-209.343 546.109,-209.343 "/>
</g>
<!-- ApplicationController -->
<g id="node3" class="node"><title>ApplicationController</title>
<path fill="none" stroke="black" d="M209.398,-340.146C209.398,-340.146 332.019,-340.146 332.019,-340.146 338.019,-340.146 344.019,-346.146 344.019,-352.146 344.019,-352.146 344.019,-420.146 344.019,-420.146 344.019,-426.146 338.019,-432.146 332.019,-432.146 332.019,-432.146 209.398,-432.146 209.398,-432.146 203.398,-432.146 197.398,-426.146 197.398,-420.146 197.398,-420.146 197.398,-352.146 197.398,-352.146 197.398,-346.146 203.398,-340.146 209.398,-340.146"/>
<text text-anchor="middle" x="270.708" y="-416.946" font-family="Times,serif" font-size="14.00">ApplicationController</text>
<polyline fill="none" stroke="black" points="197.398,-410.146 344.019,-410.146 "/>
<text text-anchor="start" x="205.398" y="-394.946" font-family="Times,serif" font-size="14.00">active_main_menu_tag</text>
<polyline fill="none" stroke="black" points="197.398,-388.146 344.019,-388.146 "/>
<polyline fill="none" stroke="black" points="197.398,-364.146 344.019,-364.146 "/>
</g>
<!-- ApplicationController&#45;&gt;AgentsController -->
<g id="edge1" class="edge"><title>ApplicationController&#45;&gt;AgentsController</title>
<path fill="none" stroke="black" d="M197.325,-354.053C169.846,-342.036 139.072,-328.578 113.326,-317.319"/>
</g>
<!-- ApplicationController&#45;&gt;AlbumsController -->
<g id="edge2" class="edge"><title>ApplicationController&#45;&gt;AlbumsController</title>
<path fill="none" stroke="black" d="M344.294,-347.798C371.625,-333.555 402.252,-317.595 428.118,-304.116"/>
</g>
<!-- ArtistsController -->
<g id="node4" class="node"><title>ArtistsController</title>
<path fill="none" stroke="black" d="M82.1191,-596.236C82.1191,-596.236 169.002,-596.236 169.002,-596.236 175.002,-596.236 181.002,-602.236 181.002,-608.236 181.002,-608.236 181.002,-760.236 181.002,-760.236 181.002,-766.236 175.002,-772.236 169.002,-772.236 169.002,-772.236 82.1191,-772.236 82.1191,-772.236 76.1191,-772.236 70.1191,-766.236 70.1191,-760.236 70.1191,-760.236 70.1191,-608.236 70.1191,-608.236 70.1191,-602.236 76.1191,-596.236 82.1191,-596.236"/>
<text text-anchor="middle" x="125.561" y="-757.036" font-family="Times,serif" font-size="14.00">ArtistsController</text>
<polyline fill="none" stroke="black" points="70.1191,-750.236 181.002,-750.236 "/>
<text text-anchor="start" x="78.1191" y="-735.036" font-family="Times,serif" font-size="14.00">create</text>
<text text-anchor="start" x="78.1191" y="-721.036" font-family="Times,serif" font-size="14.00">destroy</text>
<text text-anchor="start" x="78.1191" y="-707.036" font-family="Times,serif" font-size="14.00">edit</text>
<text text-anchor="start" x="78.1191" y="-693.036" font-family="Times,serif" font-size="14.00">index</text>
<text text-anchor="start" x="78.1191" y="-679.036" font-family="Times,serif" font-size="14.00">new</text>
<text text-anchor="start" x="78.1191" y="-665.036" font-family="Times,serif" font-size="14.00">show</text>
<text text-anchor="start" x="78.1191" y="-651.036" font-family="Times,serif" font-size="14.00">update</text>
<polyline fill="none" stroke="black" points="70.1191,-644.236 181.002,-644.236 "/>
<polyline fill="none" stroke="black" points="70.1191,-620.236 181.002,-620.236 "/>
</g>
<!-- ApplicationController&#45;&gt;ArtistsController -->
<g id="edge3" class="edge"><title>ApplicationController&#45;&gt;ArtistsController</title>
<path fill="none" stroke="black" d="M248.188,-432.395C226.967,-475.976 194.614,-542.42 168.467,-596.118"/>
</g>
<!-- BandsController -->
<g id="node5" class="node"><title>BandsController</title>
<path fill="none" stroke="black" d="M387.845,-590.176C387.845,-590.176 472.39,-590.176 472.39,-590.176 478.39,-590.176 484.39,-596.176 484.39,-602.176 484.39,-602.176 484.39,-754.176 484.39,-754.176 484.39,-760.176 478.39,-766.176 472.39,-766.176 472.39,-766.176 387.845,-766.176 387.845,-766.176 381.845,-766.176 375.845,-760.176 375.845,-754.176 375.845,-754.176 375.845,-602.176 375.845,-602.176 375.845,-596.176 381.845,-590.176 387.845,-590.176"/>
<text text-anchor="middle" x="430.117" y="-750.976" font-family="Times,serif" font-size="14.00">BandsController</text>
<polyline fill="none" stroke="black" points="375.845,-744.176 484.39,-744.176 "/>
<text text-anchor="start" x="383.845" y="-728.976" font-family="Times,serif" font-size="14.00">create</text>
<text text-anchor="start" x="383.845" y="-714.976" font-family="Times,serif" font-size="14.00">destroy</text>
<text text-anchor="start" x="383.845" y="-700.976" font-family="Times,serif" font-size="14.00">edit</text>
<text text-anchor="start" x="383.845" y="-686.976" font-family="Times,serif" font-size="14.00">index</text>
<text text-anchor="start" x="383.845" y="-672.976" font-family="Times,serif" font-size="14.00">new</text>
<text text-anchor="start" x="383.845" y="-658.976" font-family="Times,serif" font-size="14.00">show</text>
<text text-anchor="start" x="383.845" y="-644.976" font-family="Times,serif" font-size="14.00">update</text>
<polyline fill="none" stroke="black" points="375.845,-638.176 484.39,-638.176 "/>
<polyline fill="none" stroke="black" points="375.845,-614.176 484.39,-614.176 "/>
</g>
<!-- ApplicationController&#45;&gt;BandsController -->
<g id="edge4" class="edge"><title>ApplicationController&#45;&gt;BandsController</title>
<path fill="none" stroke="black" d="M295.967,-432.419C319.012,-474.636 353.689,-538.163 382.014,-590.052"/>
</g>
<!-- HomeController -->
<g id="node6" class="node"><title>HomeController</title>
<path fill="none" stroke="black" d="M12.6056,-455.363C12.6056,-455.363 96.3644,-455.363 96.3644,-455.363 102.364,-455.363 108.364,-461.363 108.364,-467.363 108.364,-467.363 108.364,-535.363 108.364,-535.363 108.364,-541.363 102.364,-547.363 96.3644,-547.363 96.3644,-547.363 12.6056,-547.363 12.6056,-547.363 6.60562,-547.363 0.605622,-541.363 0.605622,-535.363 0.605622,-535.363 0.605622,-467.363 0.605622,-467.363 0.605622,-461.363 6.60562,-455.363 12.6056,-455.363"/>
<text text-anchor="middle" x="54.485" y="-532.163" font-family="Times,serif" font-size="14.00">HomeController</text>
<polyline fill="none" stroke="black" points="0.605622,-525.363 108.364,-525.363 "/>
<text text-anchor="start" x="8.60562" y="-510.163" font-family="Times,serif" font-size="14.00">index</text>
<polyline fill="none" stroke="black" points="0.605622,-503.363 108.364,-503.363 "/>
<polyline fill="none" stroke="black" points="0.605622,-479.363 108.364,-479.363 "/>
</g>
<!-- ApplicationController&#45;&gt;HomeController -->
<g id="edge5" class="edge"><title>ApplicationController&#45;&gt;HomeController</title>
<path fill="none" stroke="black" d="M197.203,-425.314C168.188,-440.775 135.454,-458.218 108.662,-472.494"/>
</g>
<!-- StintsController -->
<g id="node7" class="node"><title>StintsController</title>
<path fill="none" stroke="black" d="M72.4772,-6.33579C72.4772,-6.33579 153.925,-6.33579 153.925,-6.33579 159.925,-6.33579 165.925,-12.3358 165.925,-18.3358 165.925,-18.3358 165.925,-170.336 165.925,-170.336 165.925,-176.336 159.925,-182.336 153.925,-182.336 153.925,-182.336 72.4772,-182.336 72.4772,-182.336 66.4772,-182.336 60.4772,-176.336 60.4772,-170.336 60.4772,-170.336 60.4772,-18.3358 60.4772,-18.3358 60.4772,-12.3358 66.4772,-6.33579 72.4772,-6.33579"/>
<text text-anchor="middle" x="113.201" y="-167.136" font-family="Times,serif" font-size="14.00">StintsController</text>
<polyline fill="none" stroke="black" points="60.4772,-160.336 165.925,-160.336 "/>
<text text-anchor="start" x="68.4772" y="-145.136" font-family="Times,serif" font-size="14.00">create</text>
<text text-anchor="start" x="68.4772" y="-131.136" font-family="Times,serif" font-size="14.00">destroy</text>
<text text-anchor="start" x="68.4772" y="-117.136" font-family="Times,serif" font-size="14.00">edit</text>
<text text-anchor="start" x="68.4772" y="-103.136" font-family="Times,serif" font-size="14.00">index</text>
<text text-anchor="start" x="68.4772" y="-89.1358" font-family="Times,serif" font-size="14.00">new</text>
<text text-anchor="start" x="68.4772" y="-75.1358" font-family="Times,serif" font-size="14.00">show</text>
<text text-anchor="start" x="68.4772" y="-61.1358" font-family="Times,serif" font-size="14.00">update</text>
<polyline fill="none" stroke="black" points="60.4772,-54.3358 165.925,-54.3358 "/>
<polyline fill="none" stroke="black" points="60.4772,-30.3358 165.925,-30.3358 "/>
</g>
<!-- ApplicationController&#45;&gt;StintsController -->
<g id="edge6" class="edge"><title>ApplicationController&#45;&gt;StintsController</title>
<path fill="none" stroke="black" d="M245.751,-339.907C222.981,-297.722 188.717,-234.243 160.731,-182.393"/>
</g>
<!-- SuperFansController -->
<g id="node8" class="node"><title>SuperFansController</title>
<path fill="none" stroke="black" d="M364.24,-0.5C364.24,-0.5 472.895,-0.5 472.895,-0.5 478.895,-0.5 484.895,-6.5 484.895,-12.5 484.895,-12.5 484.895,-164.5 484.895,-164.5 484.895,-170.5 478.895,-176.5 472.895,-176.5 472.895,-176.5 364.24,-176.5 364.24,-176.5 358.24,-176.5 352.24,-170.5 352.24,-164.5 352.24,-164.5 352.24,-12.5 352.24,-12.5 352.24,-6.5 358.24,-0.5 364.24,-0.5"/>
<text text-anchor="middle" x="418.567" y="-161.3" font-family="Times,serif" font-size="14.00">SuperFansController</text>
<polyline fill="none" stroke="black" points="352.24,-154.5 484.895,-154.5 "/>
<text text-anchor="start" x="360.24" y="-139.3" font-family="Times,serif" font-size="14.00">create</text>
<text text-anchor="start" x="360.24" y="-125.3" font-family="Times,serif" font-size="14.00">destroy</text>
<text text-anchor="start" x="360.24" y="-111.3" font-family="Times,serif" font-size="14.00">edit</text>
<text text-anchor="start" x="360.24" y="-97.3" font-family="Times,serif" font-size="14.00">index</text>
<text text-anchor="start" x="360.24" y="-83.3" font-family="Times,serif" font-size="14.00">new</text>
<text text-anchor="start" x="360.24" y="-69.3" font-family="Times,serif" font-size="14.00">show</text>
<text text-anchor="start" x="360.24" y="-55.3" font-family="Times,serif" font-size="14.00">update</text>
<polyline fill="none" stroke="black" points="352.24,-48.5 484.895,-48.5 "/>
<polyline fill="none" stroke="black" points="352.24,-24.5 484.895,-24.5 "/>
</g>
<!-- ApplicationController&#45;&gt;SuperFansController -->
<g id="edge7" class="edge"><title>ApplicationController&#45;&gt;SuperFansController</title>
<path fill="none" stroke="black" d="M293.649,-339.965C315.226,-296.531 348.1,-230.354 374.709,-176.789"/>
</g>
<!-- TracksController -->
<g id="node9" class="node"><title>TracksController</title>
<path fill="none" stroke="black" d="M441.456,-392.727C441.456,-392.727 528.606,-392.727 528.606,-392.727 534.606,-392.727 540.606,-398.727 540.606,-404.727 540.606,-404.727 540.606,-556.727 540.606,-556.727 540.606,-562.727 534.606,-568.727 528.606,-568.727 528.606,-568.727 441.456,-568.727 441.456,-568.727 435.456,-568.727 429.456,-562.727 429.456,-556.727 429.456,-556.727 429.456,-404.727 429.456,-404.727 429.456,-398.727 435.456,-392.727 441.456,-392.727"/>
<text text-anchor="middle" x="485.031" y="-553.527" font-family="Times,serif" font-size="14.00">TracksController</text>
<polyline fill="none" stroke="black" points="429.456,-546.727 540.606,-546.727 "/>
<text text-anchor="start" x="437.456" y="-531.527" font-family="Times,serif" font-size="14.00">create</text>
<text text-anchor="start" x="437.456" y="-517.527" font-family="Times,serif" font-size="14.00">destroy</text>
<text text-anchor="start" x="437.456" y="-503.527" font-family="Times,serif" font-size="14.00">edit</text>
<text text-anchor="start" x="437.456" y="-489.527" font-family="Times,serif" font-size="14.00">index</text>
<text text-anchor="start" x="437.456" y="-475.527" font-family="Times,serif" font-size="14.00">new</text>
<text text-anchor="start" x="437.456" y="-461.527" font-family="Times,serif" font-size="14.00">show</text>
<text text-anchor="start" x="437.456" y="-447.527" font-family="Times,serif" font-size="14.00">update</text>
<polyline fill="none" stroke="black" points="429.456,-440.727 540.606,-440.727 "/>
<polyline fill="none" stroke="black" points="429.456,-416.727 540.606,-416.727 "/>
</g>
<!-- ApplicationController&#45;&gt;TracksController -->
<g id="edge8" class="edge"><title>ApplicationController&#45;&gt;TracksController</title>
<path fill="none" stroke="black" d="M344.166,-418.563C372.036,-430.862 403.293,-444.656 429.27,-456.12"/>
</g>
</g>
</svg>
