<?xml version="1.0" encoding="UTF-8" standalone="no"?>
<!DOCTYPE svg PUBLIC "-//W3C//DTD SVG 1.1//EN"
 "http://www.w3.org/Graphics/SVG/1.1/DTD/svg11.dtd">
<!-- Generated by graphviz version 2.36.0 (20140111.2315)
 -->
<!-- Title: models_diagram Pages: 1 -->
<svg width="570pt" height="552pt"
 viewBox="0.00 0.00 570.13 552.00" xmlns="http://www.w3.org/2000/svg" xmlns:xlink="http://www.w3.org/1999/xlink">
<g id="graph0" class="graph" transform="scale(1 1) rotate(0) translate(4 548)">
<title>models_diagram</title>
<polygon fill="white" stroke="none" points="-4,4 -4,-548 566.131,-548 566.131,4 -4,4"/>
<!-- _diagram_info -->
<g id="node1" class="node"><title>_diagram_info</title>
<text text-anchor="start" x="14.0563" y="-529.1" font-family="Times,serif" font-size="13.00">Models diagram</text>
<text text-anchor="start" x="14.0563" y="-516.1" font-family="Times,serif" font-size="13.00">Date: Apr 24 2014 &#45; 16:36</text>
<text text-anchor="start" x="14.0563" y="-503.1" font-family="Times,serif" font-size="13.00">Migration version: 20140424231735</text>
<text text-anchor="start" x="14.0563" y="-490.1" font-family="Times,serif" font-size="13.00">Generated by RailRoady 1.1.1</text>
<text text-anchor="start" x="14.0563" y="-477.1" font-family="Times,serif" font-size="13.00">http://railroady.prestonlee.com</text>
</g>
<!-- Agent -->
<g id="node2" class="node"><title>Agent</title>
<path fill="none" stroke="black" d="M206.115,-319C206.115,-319 321.373,-319 321.373,-319 327.373,-319 333.373,-325 333.373,-331 333.373,-331 333.373,-421 333.373,-421 333.373,-427 327.373,-433 321.373,-433 321.373,-433 206.115,-433 206.115,-433 200.115,-433 194.115,-427 194.115,-421 194.115,-421 194.115,-331 194.115,-331 194.115,-325 200.115,-319 206.115,-319"/>
<text text-anchor="middle" x="263.744" y="-417.8" font-family="Times,serif" font-size="14.00">Agent</text>
<polyline fill="none" stroke="black" points="194.115,-411 333.373,-411 "/>
<text text-anchor="start" x="202.115" y="-395.8" font-family="Times,serif" font-size="14.00">id :integer</text>
<text text-anchor="start" x="202.115" y="-381.8" font-family="Times,serif" font-size="14.00">first_name :string</text>
<text text-anchor="start" x="202.115" y="-367.8" font-family="Times,serif" font-size="14.00">last_name :string</text>
<text text-anchor="start" x="202.115" y="-353.8" font-family="Times,serif" font-size="14.00">phone_number :string</text>
<text text-anchor="start" x="202.115" y="-339.8" font-family="Times,serif" font-size="14.00">created_at :datetime</text>
<text text-anchor="start" x="202.115" y="-325.8" font-family="Times,serif" font-size="14.00">updated_at :datetime</text>
</g>
<!-- Band -->
<g id="node5" class="node"><title>Band</title>
<path fill="none" stroke="black" d="M258.239,-167C258.239,-167 367.249,-167 367.249,-167 373.249,-167 379.249,-173 379.249,-179 379.249,-179 379.249,-269 379.249,-269 379.249,-275 373.249,-281 367.249,-281 367.249,-281 258.239,-281 258.239,-281 252.239,-281 246.239,-275 246.239,-269 246.239,-269 246.239,-179 246.239,-179 246.239,-173 252.239,-167 258.239,-167"/>
<text text-anchor="middle" x="312.744" y="-265.8" font-family="Times,serif" font-size="14.00">Band</text>
<polyline fill="none" stroke="black" points="246.239,-259 379.249,-259 "/>
<text text-anchor="start" x="254.239" y="-243.8" font-family="Times,serif" font-size="14.00">id :integer</text>
<text text-anchor="start" x="254.239" y="-229.8" font-family="Times,serif" font-size="14.00">name :string</text>
<text text-anchor="start" x="254.239" y="-215.8" font-family="Times,serif" font-size="14.00">signed_on :date</text>
<text text-anchor="start" x="254.239" y="-201.8" font-family="Times,serif" font-size="14.00">agent_id :integer</text>
<text text-anchor="start" x="254.239" y="-187.8" font-family="Times,serif" font-size="14.00">created_at :datetime</text>
<text text-anchor="start" x="254.239" y="-173.8" font-family="Times,serif" font-size="14.00">updated_at :datetime</text>
</g>
<!-- Agent&#45;&gt;Band -->
<g id="edge1" class="edge"><title>Agent&#45;&gt;Band</title>
<path fill="none" stroke="#fba915" d="M284.699,-310.851C286.872,-304.202 289.082,-297.436 291.259,-290.769"/>
<ellipse fill="none" stroke="#fba915" cx="283.371" cy="-314.917" rx="4.00001" ry="4.00001"/>
<polygon fill="#fba915" stroke="#fba915" points="291.313,-290.603 298.696,-282.495 292.866,-285.851 294.419,-281.098 294.419,-281.098 294.419,-281.098 292.866,-285.851 290.141,-279.7 291.313,-290.603 291.313,-290.603"/>
</g>
<!-- Album -->
<g id="node3" class="node"><title>Album</title>
<path fill="none" stroke="black" d="M55.2386,-326C55.2386,-326 164.249,-326 164.249,-326 170.249,-326 176.249,-332 176.249,-338 176.249,-338 176.249,-414 176.249,-414 176.249,-420 170.249,-426 164.249,-426 164.249,-426 55.2386,-426 55.2386,-426 49.2386,-426 43.2386,-420 43.2386,-414 43.2386,-414 43.2386,-338 43.2386,-338 43.2386,-332 49.2386,-326 55.2386,-326"/>
<text text-anchor="middle" x="109.744" y="-410.8" font-family="Times,serif" font-size="14.00">Album</text>
<polyline fill="none" stroke="black" points="43.2386,-404 176.249,-404 "/>
<text text-anchor="start" x="51.2386" y="-388.8" font-family="Times,serif" font-size="14.00">id :integer</text>
<text text-anchor="start" x="51.2386" y="-374.8" font-family="Times,serif" font-size="14.00">title :string</text>
<text text-anchor="start" x="51.2386" y="-360.8" font-family="Times,serif" font-size="14.00">released_on :date</text>
<text text-anchor="start" x="51.2386" y="-346.8" font-family="Times,serif" font-size="14.00">created_at :datetime</text>
<text text-anchor="start" x="51.2386" y="-332.8" font-family="Times,serif" font-size="14.00">updated_at :datetime</text>
</g>
<!-- Album&#45;&gt;Band -->
<g id="edge4" class="edge"><title>Album&#45;&gt;Band</title>
<path fill="none" stroke="#43d72d" d="M182.493,-319.674C183.247,-319.113 183.997,-318.555 184.744,-318 201.796,-305.328 220.228,-291.824 237.65,-279.147"/>
<polygon fill="#43d72d" stroke="#43d72d" points="182.326,-319.8 171.622,-322.182 178.321,-322.793 174.316,-325.786 174.316,-325.786 174.316,-325.786 178.321,-322.793 177.01,-329.391 182.326,-319.8 182.326,-319.8"/>
<polygon fill="#43d72d" stroke="#43d72d" points="238.021,-278.877 248.756,-276.638 242.066,-275.938 246.111,-272.998 246.111,-272.998 246.111,-272.998 242.066,-275.938 243.465,-269.358 238.021,-278.877 238.021,-278.877"/>
</g>
<!-- Track -->
<g id="node7" class="node"><title>Track</title>
<path fill="none" stroke="black" d="M55.2386,-1C55.2386,-1 164.249,-1 164.249,-1 170.249,-1 176.249,-7 176.249,-13 176.249,-13 176.249,-117 176.249,-117 176.249,-123 170.249,-129 164.249,-129 164.249,-129 55.2386,-129 55.2386,-129 49.2386,-129 43.2386,-123 43.2386,-117 43.2386,-117 43.2386,-13 43.2386,-13 43.2386,-7 49.2386,-1 55.2386,-1"/>
<text text-anchor="middle" x="109.744" y="-113.8" font-family="Times,serif" font-size="14.00">Track</text>
<polyline fill="none" stroke="black" points="43.2386,-107 176.249,-107 "/>
<text text-anchor="start" x="51.2386" y="-91.8" font-family="Times,serif" font-size="14.00">id :integer</text>
<text text-anchor="start" x="51.2386" y="-77.8" font-family="Times,serif" font-size="14.00">title :string</text>
<text text-anchor="start" x="51.2386" y="-63.8" font-family="Times,serif" font-size="14.00">seconds :integer</text>
<text text-anchor="start" x="51.2386" y="-49.8" font-family="Times,serif" font-size="14.00">released_on :date</text>
<text text-anchor="start" x="51.2386" y="-35.8" font-family="Times,serif" font-size="14.00">band_id :integer</text>
<text text-anchor="start" x="51.2386" y="-21.8" font-family="Times,serif" font-size="14.00">created_at :datetime</text>
<text text-anchor="start" x="51.2386" y="-7.8" font-family="Times,serif" font-size="14.00">updated_at :datetime</text>
</g>
<!-- Album&#45;&gt;Track -->
<g id="edge3" class="edge"><title>Album&#45;&gt;Track</title>
<path fill="none" stroke="#4a92db" d="M109.744,-315.672C109.744,-265.39 109.744,-193.076 109.744,-139.203"/>
<polygon fill="#4a92db" stroke="#4a92db" points="109.744,-315.696 105.244,-325.696 109.744,-320.696 109.744,-325.696 109.744,-325.696 109.744,-325.696 109.744,-320.696 114.244,-325.696 109.744,-315.696 109.744,-315.696"/>
<polygon fill="#4a92db" stroke="#4a92db" points="109.744,-139.028 114.244,-129.028 109.744,-134.028 109.744,-129.028 109.744,-129.028 109.744,-129.028 109.744,-134.028 105.244,-129.028 109.744,-139.028 109.744,-139.028"/>
</g>
<!-- Artist -->
<g id="node4" class="node"><title>Artist</title>
<path fill="none" stroke="black" d="M402.239,-326C402.239,-326 511.249,-326 511.249,-326 517.249,-326 523.249,-332 523.249,-338 523.249,-338 523.249,-414 523.249,-414 523.249,-420 517.249,-426 511.249,-426 511.249,-426 402.239,-426 402.239,-426 396.239,-426 390.239,-420 390.239,-414 390.239,-414 390.239,-338 390.239,-338 390.239,-332 396.239,-326 402.239,-326"/>
<text text-anchor="middle" x="456.744" y="-410.8" font-family="Times,serif" font-size="14.00">Artist</text>
<polyline fill="none" stroke="black" points="390.239,-404 523.249,-404 "/>
<text text-anchor="start" x="398.239" y="-388.8" font-family="Times,serif" font-size="14.00">id :integer</text>
<text text-anchor="start" x="398.239" y="-374.8" font-family="Times,serif" font-size="14.00">name :string</text>
<text text-anchor="start" x="398.239" y="-360.8" font-family="Times,serif" font-size="14.00">date_of_birth :date</text>
<text text-anchor="start" x="398.239" y="-346.8" font-family="Times,serif" font-size="14.00">created_at :datetime</text>
<text text-anchor="start" x="398.239" y="-332.8" font-family="Times,serif" font-size="14.00">updated_at :datetime</text>
</g>
<!-- Artist&#45;&gt;Band -->
<g id="edge7" class="edge"><title>Artist&#45;&gt;Band</title>
<path fill="none" stroke="#d823c1" d="M402.421,-318.413C393.117,-308.722 383.393,-298.593 373.925,-288.73"/>
<polygon fill="#d823c1" stroke="#d823c1" points="402.668,-318.67 406.347,-329.001 406.13,-322.277 409.593,-325.884 409.593,-325.884 409.593,-325.884 406.13,-322.277 412.839,-322.768 402.668,-318.67 402.668,-318.67"/>
<polygon fill="#d823c1" stroke="#d823c1" points="373.671,-288.465 369.991,-278.135 370.208,-284.858 366.745,-281.251 366.745,-281.251 366.745,-281.251 370.208,-284.858 363.499,-284.368 373.671,-288.465 373.671,-288.465"/>
</g>
<!-- Stint -->
<g id="node6" class="node"><title>Stint</title>
<path fill="none" stroke="black" d="M402.239,-1C402.239,-1 511.249,-1 511.249,-1 517.249,-1 523.249,-7 523.249,-13 523.249,-13 523.249,-117 523.249,-117 523.249,-123 517.249,-129 511.249,-129 511.249,-129 402.239,-129 402.239,-129 396.239,-129 390.239,-123 390.239,-117 390.239,-117 390.239,-13 390.239,-13 390.239,-7 396.239,-1 402.239,-1"/>
<text text-anchor="middle" x="456.744" y="-113.8" font-family="Times,serif" font-size="14.00">Stint</text>
<polyline fill="none" stroke="black" points="390.239,-107 523.249,-107 "/>
<text text-anchor="start" x="398.239" y="-91.8" font-family="Times,serif" font-size="14.00">id :integer</text>
<text text-anchor="start" x="398.239" y="-77.8" font-family="Times,serif" font-size="14.00">start_date :date</text>
<text text-anchor="start" x="398.239" y="-63.8" font-family="Times,serif" font-size="14.00">end_date :date</text>
<text text-anchor="start" x="398.239" y="-49.8" font-family="Times,serif" font-size="14.00">band_id :integer</text>
<text text-anchor="start" x="398.239" y="-35.8" font-family="Times,serif" font-size="14.00">artist_id :integer</text>
<text text-anchor="start" x="398.239" y="-21.8" font-family="Times,serif" font-size="14.00">created_at :datetime</text>
<text text-anchor="start" x="398.239" y="-7.8" font-family="Times,serif" font-size="14.00">updated_at :datetime</text>
</g>
<!-- Artist&#45;&gt;Stint -->
<g id="edge6" class="edge"><title>Artist&#45;&gt;Stint</title>
<path fill="none" stroke="#9423b8" d="M456.744,-317.663C456.744,-267.353 456.744,-193.908 456.744,-139.333"/>
<ellipse fill="none" stroke="#9423b8" cx="456.744" cy="-321.696" rx="4" ry="4"/>
<polygon fill="#9423b8" stroke="#9423b8" points="456.744,-139.028 461.244,-129.028 456.744,-134.028 456.744,-129.028 456.744,-129.028 456.744,-129.028 456.744,-134.028 452.244,-129.028 456.744,-139.028 456.744,-139.028"/>
</g>
<!-- Band&#45;&gt;Stint -->
<g id="edge10" class="edge"><title>Band&#45;&gt;Stint</title>
<path fill="none" stroke="#504cd6" d="M369.899,-160.686C377.208,-152.716 384.732,-144.514 392.149,-136.427"/>
<ellipse fill="none" stroke="#504cd6" cx="367.028" cy="-163.815" rx="4.00002" ry="4.00002"/>
<polygon fill="#504cd6" stroke="#504cd6" points="392.162,-136.412 402.238,-132.084 395.542,-132.727 398.922,-129.042 398.922,-129.042 398.922,-129.042 395.542,-132.727 395.605,-126.001 392.162,-136.412 392.162,-136.412"/>
</g>
<!-- Band&#45;&gt;Track -->
<g id="edge9" class="edge"><title>Band&#45;&gt;Track</title>
<path fill="none" stroke="#26e889" d="M239.657,-166.475C221.79,-152.656 202.644,-137.849 184.691,-123.964"/>
<ellipse fill="none" stroke="#26e889" cx="242.829" cy="-168.928" rx="4.00002" ry="4.00002"/>
<polygon fill="#26e889" stroke="#26e889" points="184.445,-123.774 179.288,-114.097 180.49,-120.715 176.535,-117.656 176.535,-117.656 176.535,-117.656 180.49,-120.715 173.782,-121.216 184.445,-123.774 184.445,-123.774"/>
</g>
<!-- ActiveRecord::Base -->
<g id="node8" class="node"><title>ActiveRecord::Base</title>
<ellipse fill="none" stroke="black" cx="312.744" cy="-507" rx="80.9821" ry="18"/>
<text text-anchor="middle" x="312.744" y="-502.8" font-family="Times,serif" font-size="14.00">ActiveRecord::Base</text>
</g>
<!-- ActiveRecord::Base&#45;&gt;Agent -->
<g id="edge2" class="edge"><title>ActiveRecord::Base&#45;&gt;Agent</title>
<path fill="none" stroke="black" d="M306.237,-488.87C300.796,-474.546 292.717,-453.275 285.059,-433.116"/>
</g>
<!-- ActiveRecord::Base&#45;&gt;Album -->
<g id="edge5" class="edge"><title>ActiveRecord::Base&#45;&gt;Album</title>
<path fill="none" stroke="black" d="M282.049,-490.265C255.675,-476.387 216.924,-455.135 184.744,-434 180.916,-431.486 177.029,-428.84 173.14,-426.121"/>
</g>
<!-- ActiveRecord::Base&#45;&gt;Artist -->
<g id="edge8" class="edge"><title>ActiveRecord::Base&#45;&gt;Artist</title>
<path fill="none" stroke="black" d="M331.275,-489.4C349.126,-473.408 377.022,-448.418 401.982,-426.058"/>
</g>
<!-- ActiveRecord::Base&#45;&gt;Band -->
<g id="edge11" class="edge"><title>ActiveRecord::Base&#45;&gt;Band</title>
<path fill="none" stroke="black" d="M321.847,-488.823C328.849,-474.585 337.949,-453.58 341.744,-434 351.554,-383.386 349.506,-368.968 341.744,-318 339.911,-305.962 336.815,-293.339 333.311,-281.412"/>
</g>
<!-- ActiveRecord::Base&#45;&gt;Stint -->
<g id="edge12" class="edge"><title>ActiveRecord::Base&#45;&gt;Stint</title>
<path fill="none" stroke="black" d="M391.223,-502.397C440.234,-495.591 499.885,-478.01 531.744,-434 597.601,-343.024 540.879,-207.87 496.718,-129.177"/>
</g>
<!-- ActiveRecord::Base&#45;&gt;Track -->
<g id="edge13" class="edge"><title>ActiveRecord::Base&#45;&gt;Track</title>
<path fill="none" stroke="black" d="M278.275,-490.594C261.48,-483.546 240.832,-475.55 221.744,-470 140.053,-446.248 87.949,-499.569 33.744,-434 -38.2691,-346.889 21.9967,-209.139 68.482,-129.189"/>
</g>
</g>
</svg>
