<?xml version="1.0" encoding="UTF-8" standalone="no"?>
<!DOCTYPE svg PUBLIC "-//W3C//DTD SVG 1.1//EN"
 "http://www.w3.org/Graphics/SVG/1.1/DTD/svg11.dtd">
<!-- Generated by graphviz version 2.36.0 (20140111.2315)
 -->
<!-- Title: models_diagram Pages: 1 -->
<svg width="260pt" height="188pt"
 viewBox="0.00 0.00 259.59 188.00" xmlns="http://www.w3.org/2000/svg" xmlns:xlink="http://www.w3.org/1999/xlink">
<g id="graph0" class="graph" transform="scale(1 1) rotate(0) translate(4 184)">
<title>models_diagram</title>
<polygon fill="white" stroke="none" points="-4,4 -4,-184 255.588,-184 255.588,4 -4,4"/>
<!-- Agent -->
<g id="node1" class="node"><title>Agent</title>
<ellipse fill="none" stroke="black" cx="133.588" cy="-162" rx="31.5774" ry="18"/>
<text text-anchor="middle" x="133.588" y="-157.8" font-family="Times,serif" font-size="14.00">Agent</text>
</g>
<!-- Band -->
<g id="node4" class="node"><title>Band</title>
<ellipse fill="none" stroke="black" cx="148.588" cy="-90" rx="28.1657" ry="18"/>
<text text-anchor="middle" x="148.588" y="-85.8" font-family="Times,serif" font-size="14.00">Band</text>
</g>
<!-- Agent&#45;&gt;Band -->
<g id="edge1" class="edge"><title>Agent&#45;&gt;Band</title>
<path fill="none" stroke="#8927c3" d="M138.948,-135.987C140.177,-130.249 141.49,-124.121 142.739,-118.293"/>
<ellipse fill="none" stroke="#8927c3" cx="138.057" cy="-140.144" rx="4.00001" ry="4.00001"/>
<polygon fill="#8927c3" stroke="#8927c3" points="142.791,-118.053 149.286,-109.218 143.838,-113.164 144.886,-108.275 144.886,-108.275 144.886,-108.275 143.838,-113.164 140.486,-107.332 142.791,-118.053 142.791,-118.053"/>
</g>
<!-- Album -->
<g id="node2" class="node"><title>Album</title>
<ellipse fill="none" stroke="black" cx="217.588" cy="-162" rx="34.5079" ry="18"/>
<text text-anchor="middle" x="217.588" y="-157.8" font-family="Times,serif" font-size="14.00">Album</text>
</g>
<!-- Album&#45;&gt;Band -->
<g id="edge3" class="edge"><title>Album&#45;&gt;Band</title>
<path fill="none" stroke="#310abc" d="M195.061,-138.146C187.263,-130.236 178.533,-121.38 170.764,-113.498"/>
<polygon fill="#310abc" stroke="#310abc" points="195.254,-138.343 199.07,-148.624 198.764,-141.904 202.274,-145.465 202.274,-145.465 202.274,-145.465 198.764,-141.904 205.479,-142.306 195.254,-138.343 195.254,-138.343"/>
<polygon fill="#310abc" stroke="#310abc" points="170.405,-113.133 166.59,-102.852 166.895,-109.572 163.385,-106.011 163.385,-106.011 163.385,-106.011 166.895,-109.572 160.18,-109.17 170.405,-113.133 170.405,-113.133"/>
</g>
<!-- Track -->
<g id="node7" class="node"><title>Track</title>
<ellipse fill="none" stroke="black" cx="178.588" cy="-18" rx="30.1295" ry="18"/>
<text text-anchor="middle" x="178.588" y="-13.8" font-family="Times,serif" font-size="14.00">Track</text>
</g>
<!-- Album&#45;&gt;Track -->
<g id="edge2" class="edge"><title>Album&#45;&gt;Track</title>
<path fill="none" stroke="#ecd27b" d="M210.257,-134.309C203.278,-108.897 192.834,-70.8704 185.871,-45.5167"/>
<polygon fill="#ecd27b" stroke="#ecd27b" points="210.312,-134.51 208.622,-145.345 211.637,-139.332 212.961,-144.153 212.961,-144.153 212.961,-144.153 211.637,-139.332 217.3,-142.961 210.312,-134.51 210.312,-134.51"/>
<polygon fill="#ecd27b" stroke="#ecd27b" points="185.857,-45.4679 187.548,-34.6331 184.533,-40.6464 183.209,-35.825 183.209,-35.825 183.209,-35.825 184.533,-40.6464 178.869,-37.0168 185.857,-45.4679 185.857,-45.4679"/>
</g>
<!-- Artist -->
<g id="node3" class="node"><title>Artist</title>
<ellipse fill="none" stroke="black" cx="53.5878" cy="-162" rx="29.8792" ry="18"/>
<text text-anchor="middle" x="53.5878" y="-157.8" font-family="Times,serif" font-size="14.00">Artist</text>
</g>
<!-- Artist&#45;&gt;Band -->
<g id="edge6" class="edge"><title>Artist&#45;&gt;Band</title>
<path fill="none" stroke="#411a2c" d="M80.3702,-141.266C93.5599,-131.547 109.4,-119.875 122.496,-110.226"/>
<polygon fill="#411a2c" stroke="#411a2c" points="79.9553,-141.571 69.2353,-143.881 75.93,-144.537 71.9047,-147.503 71.9047,-147.503 71.9047,-147.503 75.93,-144.537 74.5742,-151.126 79.9553,-141.571 79.9553,-141.571"/>
<polygon fill="#411a2c" stroke="#411a2c" points="122.599,-110.15 133.319,-107.841 126.624,-107.184 130.649,-104.218 130.649,-104.218 130.649,-104.218 126.624,-107.184 127.98,-100.595 122.599,-110.15 122.599,-110.15"/>
</g>
<!-- Stint -->
<g id="node5" class="node"><title>Stint</title>
<ellipse fill="none" stroke="black" cx="59.5878" cy="-18" rx="27" ry="18"/>
<text text-anchor="middle" x="59.5878" y="-13.8" font-family="Times,serif" font-size="14.00">Stint</text>
</g>
<!-- Artist&#45;&gt;Stint -->
<g id="edge5" class="edge"><title>Artist&#45;&gt;Stint</title>
<path fill="none" stroke="#7203c0" d="M29.2609,-141.856C19.6438,-132.756 9.68365,-121.018 4.58778,-108 -1.2443,-93.1008 -1.67174,-86.7248 4.58778,-72 10.4167,-58.2881 21.724,-46.4029 32.5778,-37.3823"/>
<ellipse fill="none" stroke="#7203c0" cx="32.5015" cy="-144.769" rx="4.00002" ry="4.00002"/>
<polygon fill="#7203c0" stroke="#7203c0" points="32.8033,-37.2065 43.4572,-34.6092 36.7472,-34.1331 40.6911,-31.0597 40.6911,-31.0597 40.6911,-31.0597 36.7472,-34.1331 37.9251,-27.5102 32.8033,-37.2065 32.8033,-37.2065"/>
</g>
<!-- SuperFan -->
<g id="node6" class="node"><title>SuperFan</title>
<ellipse fill="none" stroke="black" cx="57.5878" cy="-90" rx="44.0058" ry="18"/>
<text text-anchor="middle" x="57.5878" y="-85.8" font-family="Times,serif" font-size="14.00">SuperFan</text>
</g>
<!-- Artist&#45;&gt;SuperFan -->
<g id="edge4" class="edge"><title>Artist&#45;&gt;SuperFan</title>
<path fill="none" stroke="#7fa47f" d="M55.0369,-135.64C55.3965,-129.348 55.7818,-122.605 56.1412,-116.316"/>
<ellipse fill="none" stroke="#7fa47f" cx="54.8048" cy="-139.703" rx="4" ry="4"/>
<ellipse fill="#7fa47f" stroke="#7fa47f" cx="56.3821" cy="-112.098" rx="4" ry="4"/>
</g>
<!-- Band&#45;&gt;Stint -->
<g id="edge8" class="edge"><title>Band&#45;&gt;Stint</title>
<path fill="none" stroke="#53ec6b" d="M124.743,-70.246C112.222,-60.3979 96.8973,-48.3445 84.2563,-38.4022"/>
<ellipse fill="none" stroke="#53ec6b" cx="128.284" cy="-73.0304" rx="4.00002" ry="4.00002"/>
<polygon fill="#53ec6b" stroke="#53ec6b" points="84.2535,-38.4 79.1753,-28.6808 80.3234,-35.309 76.3934,-32.2179 76.3934,-32.2179 76.3934,-32.2179 80.3234,-35.309 73.6114,-35.7549 84.2535,-38.4 84.2535,-38.4"/>
</g>
<!-- Band&#45;&gt;Track -->
<g id="edge7" class="edge"><title>Band&#45;&gt;Track</title>
<path fill="none" stroke="#3d63a8" d="M158.969,-64.7779C161.64,-58.544 164.529,-51.8046 167.246,-45.4634"/>
<ellipse fill="none" stroke="#3d63a8" cx="157.273" cy="-68.7344" rx="4.00002" ry="4.00002"/>
<polygon fill="#3d63a8" stroke="#3d63a8" points="167.382,-45.1477 175.457,-37.7289 169.351,-40.5519 171.321,-35.9562 171.321,-35.9562 171.321,-35.9562 169.351,-40.5519 167.185,-34.1835 167.382,-45.1477 167.382,-45.1477"/>
</g>
</g>
</svg>
