<?xml version="1.0" encoding="UTF-8" standalone="no"?>
<!DOCTYPE svg PUBLIC "-//W3C//DTD SVG 1.1//EN"
 "http://www.w3.org/Graphics/SVG/1.1/DTD/svg11.dtd">
<!-- Generated by graphviz version 2.36.0 (20140111.2315)
 -->
<!-- Title: models_diagram Pages: 1 -->
<svg width="451pt" height="298pt"
 viewBox="0.00 0.00 451.27 298.00" xmlns="http://www.w3.org/2000/svg" xmlns:xlink="http://www.w3.org/1999/xlink">
<g id="graph0" class="graph" transform="scale(1 1) rotate(0) translate(4 294)">
<title>models_diagram</title>
<polygon fill="white" stroke="none" points="-4,4 -4,-294 447.275,-294 447.275,4 -4,4"/>
<!-- _diagram_info -->
<g id="node1" class="node"><title>_diagram_info</title>
<text text-anchor="start" x="7.31226" y="-275.1" font-family="Times,serif" font-size="13.00">Models diagram</text>
<text text-anchor="start" x="7.31226" y="-262.1" font-family="Times,serif" font-size="13.00">Date: Apr 24 2014 &#45; 16:36</text>
<text text-anchor="start" x="7.31226" y="-249.1" font-family="Times,serif" font-size="13.00">Migration version: 20140424231735</text>
<text text-anchor="start" x="7.31226" y="-236.1" font-family="Times,serif" font-size="13.00">Generated by RailRoady 1.1.1</text>
<text text-anchor="start" x="7.31226" y="-223.1" font-family="Times,serif" font-size="13.00">http://railroady.prestonlee.com</text>
</g>
<!-- Agent -->
<g id="node2" class="node"><title>Agent</title>
<ellipse fill="none" stroke="black" cx="276" cy="-162" rx="31.5774" ry="18"/>
<text text-anchor="middle" x="276" y="-157.8" font-family="Times,serif" font-size="14.00">Agent</text>
</g>
<!-- Band -->
<g id="node5" class="node"><title>Band</title>
<ellipse fill="none" stroke="black" cx="306" cy="-90" rx="28.1657" ry="18"/>
<text text-anchor="middle" x="306" y="-85.8" font-family="Times,serif" font-size="14.00">Band</text>
</g>
<!-- Agent&#45;&gt;Band -->
<g id="edge1" class="edge"><title>Agent&#45;&gt;Band</title>
<path fill="none" stroke="#c5df00" d="M286.307,-136.95C289.106,-130.418 292.148,-123.322 294.984,-116.703"/>
<ellipse fill="none" stroke="#c5df00" cx="284.685" cy="-140.734" rx="4.00002" ry="4.00002"/>
<polygon fill="#c5df00" stroke="#c5df00" points="295.002,-116.661 303.078,-109.243 296.972,-112.066 298.941,-107.47 298.941,-107.47 298.941,-107.47 296.972,-112.066 294.805,-105.697 295.002,-116.661 295.002,-116.661"/>
</g>
<!-- Album -->
<g id="node3" class="node"><title>Album</title>
<ellipse fill="none" stroke="black" cx="192" cy="-162" rx="34.5079" ry="18"/>
<text text-anchor="middle" x="192" y="-157.8" font-family="Times,serif" font-size="14.00">Album</text>
</g>
<!-- Album&#45;&gt;Band -->
<g id="edge4" class="edge"><title>Album&#45;&gt;Band</title>
<path fill="none" stroke="#e71b72" d="M222.006,-142.575C239.111,-132.072 260.433,-118.98 277.313,-108.615"/>
<polygon fill="#e71b72" stroke="#e71b72" points="221.964,-142.601 211.088,-143.999 217.703,-145.217 213.443,-147.834 213.443,-147.834 213.443,-147.834 217.703,-145.217 215.797,-151.668 221.964,-142.601 221.964,-142.601"/>
<polygon fill="#e71b72" stroke="#e71b72" points="277.658,-108.403 288.534,-107.005 281.918,-105.787 286.179,-103.171 286.179,-103.171 286.179,-103.171 281.918,-105.787 283.825,-99.3358 277.658,-108.403 277.658,-108.403"/>
</g>
<!-- Track -->
<g id="node7" class="node"><title>Track</title>
<ellipse fill="none" stroke="black" cx="192" cy="-18" rx="30.1295" ry="18"/>
<text text-anchor="middle" x="192" y="-13.8" font-family="Times,serif" font-size="14.00">Track</text>
</g>
<!-- Album&#45;&gt;Track -->
<g id="edge3" class="edge"><title>Album&#45;&gt;Track</title>
<path fill="none" stroke="#6f5e9c" d="M192,-133.679C192,-108.599 192,-71.6271 192,-46.4929"/>
<polygon fill="#6f5e9c" stroke="#6f5e9c" points="192,-133.871 187.5,-143.871 192,-138.871 192,-143.871 192,-143.871 192,-143.871 192,-138.871 196.5,-143.872 192,-133.871 192,-133.871"/>
<polygon fill="#6f5e9c" stroke="#6f5e9c" points="192,-46.1893 196.5,-36.1892 192,-41.1893 192,-36.1893 192,-36.1893 192,-36.1893 192,-41.1893 187.5,-36.1893 192,-46.1893 192,-46.1893"/>
</g>
<!-- Artist -->
<g id="node4" class="node"><title>Artist</title>
<ellipse fill="none" stroke="black" cx="394" cy="-162" rx="29.8792" ry="18"/>
<text text-anchor="middle" x="394" y="-157.8" font-family="Times,serif" font-size="14.00">Artist</text>
</g>
<!-- Artist&#45;&gt;Band -->
<g id="edge7" class="edge"><title>Artist&#45;&gt;Band</title>
<path fill="none" stroke="#f6dbae" d="M368.462,-140.686C356.712,-131.339 342.816,-120.286 331.118,-110.98"/>
<polygon fill="#f6dbae" stroke="#f6dbae" points="368.788,-140.945 373.813,-150.692 372.701,-144.058 376.614,-147.17 376.614,-147.17 376.614,-147.17 372.701,-144.058 379.415,-143.649 368.788,-140.945 368.788,-140.945"/>
<polygon fill="#f6dbae" stroke="#f6dbae" points="330.876,-110.788 325.852,-101.041 326.963,-107.675 323.05,-104.563 323.05,-104.563 323.05,-104.563 326.963,-107.675 320.249,-108.085 330.876,-110.788 330.876,-110.788"/>
</g>
<!-- Stint -->
<g id="node6" class="node"><title>Stint</title>
<ellipse fill="none" stroke="black" cx="394" cy="-18" rx="27" ry="18"/>
<text text-anchor="middle" x="394" y="-13.8" font-family="Times,serif" font-size="14.00">Stint</text>
</g>
<!-- Artist&#45;&gt;Stint -->
<g id="edge6" class="edge"><title>Artist&#45;&gt;Stint</title>
<path fill="none" stroke="#20b559" d="M394,-135.558C394,-110.444 394,-72.164 394,-46.3932"/>
<ellipse fill="none" stroke="#20b559" cx="394" cy="-139.871" rx="4" ry="4"/>
<polygon fill="#20b559" stroke="#20b559" points="394,-46.1893 398.5,-36.1892 394,-41.1893 394,-36.1893 394,-36.1893 394,-36.1893 394,-41.1893 389.5,-36.1893 394,-46.1893 394,-46.1893"/>
</g>
<!-- Band&#45;&gt;Stint -->
<g id="edge10" class="edge"><title>Band&#45;&gt;Stint</title>
<path fill="none" stroke="#891ab0" d="M329.576,-70.246C341.839,-60.4917 356.821,-48.5739 369.251,-38.6868"/>
<ellipse fill="none" stroke="#891ab0" cx="326.098" cy="-73.0132" rx="4.00002" ry="4.00002"/>
<polygon fill="#891ab0" stroke="#891ab0" points="369.557,-38.4431 380.185,-35.7396 373.47,-35.3305 377.383,-32.2179 377.383,-32.2179 377.383,-32.2179 373.47,-35.3305 374.582,-28.6962 369.557,-38.4431 369.557,-38.4431"/>
</g>
<!-- Band&#45;&gt;Track -->
<g id="edge9" class="edge"><title>Band&#45;&gt;Track</title>
<path fill="none" stroke="#c27973" d="M279.513,-72.7361C262.117,-62.0542 239.344,-48.0708 221.39,-37.0463"/>
<ellipse fill="none" stroke="#c27973" cx="282.994" cy="-74.8735" rx="4.00002" ry="4.00002"/>
<polygon fill="#c27973" stroke="#c27973" points="221.016,-36.8167 214.849,-27.7493 216.755,-34.2004 212.494,-31.5841 212.494,-31.5841 212.494,-31.5841 216.755,-34.2004 210.139,-35.4188 221.016,-36.8167 221.016,-36.8167"/>
</g>
<!-- ActiveRecord::Base -->
<g id="node8" class="node"><title>ActiveRecord::Base</title>
<ellipse fill="none" stroke="black" cx="306" cy="-253" rx="80.9821" ry="18"/>
<text text-anchor="middle" x="306" y="-248.8" font-family="Times,serif" font-size="14.00">ActiveRecord::Base</text>
</g>
<!-- ActiveRecord::Base&#45;&gt;Agent -->
<g id="edge2" class="edge"><title>ActiveRecord::Base&#45;&gt;Agent</title>
<path fill="none" stroke="black" d="M300.216,-234.84C294.869,-218.979 286.973,-195.553 281.665,-179.806"/>
</g>
<!-- ActiveRecord::Base&#45;&gt;Album -->
<g id="edge5" class="edge"><title>ActiveRecord::Base&#45;&gt;Album</title>
<path fill="none" stroke="black" d="M284.825,-235.468C263.447,-218.779 230.763,-193.263 210.425,-177.384"/>
</g>
<!-- ActiveRecord::Base&#45;&gt;Artist -->
<g id="edge8" class="edge"><title>ActiveRecord::Base&#45;&gt;Artist</title>
<path fill="none" stroke="black" d="M322.552,-235.26C338.883,-218.744 363.612,-193.733 379.277,-177.89"/>
</g>
<!-- ActiveRecord::Base&#45;&gt;Band -->
<g id="edge11" class="edge"><title>ActiveRecord::Base&#45;&gt;Band</title>
<path fill="none" stroke="black" d="M309.567,-234.791C313.529,-213.477 318.998,-176.06 316,-144 314.867,-131.88 312.306,-118.402 310.059,-108.071"/>
</g>
<!-- ActiveRecord::Base&#45;&gt;Stint -->
<g id="edge12" class="edge"><title>ActiveRecord::Base&#45;&gt;Stint</title>
<path fill="none" stroke="black" d="M353.709,-238.402C382.162,-227.56 415.967,-209.236 433,-180 460.942,-132.039 424.586,-64.8861 405,-34.7386"/>
</g>
<!-- ActiveRecord::Base&#45;&gt;Track -->
<g id="edge13" class="edge"><title>ActiveRecord::Base&#45;&gt;Track</title>
<path fill="none" stroke="black" d="M267.617,-237.043C223.126,-219.322 154.972,-190.838 148,-180 117.746,-132.966 158.118,-65.342 179.821,-34.9069"/>
</g>
</g>
</svg>
