<?xml version="1.0" encoding="UTF-8" standalone="no"?>
<!DOCTYPE svg PUBLIC "-//W3C//DTD SVG 1.1//EN"
 "http://www.w3.org/Graphics/SVG/1.1/DTD/svg11.dtd">
<!-- Generated by graphviz version 2.36.0 (20140111.2315)
 -->
<!-- Title: models_diagram Pages: 1 -->
<svg width="751pt" height="472pt"
 viewBox="0.00 0.00 751.24 472.00" xmlns="http://www.w3.org/2000/svg" xmlns:xlink="http://www.w3.org/1999/xlink">
<g id="graph0" class="graph" transform="scale(1 1) rotate(0) translate(4 468)">
<title>models_diagram</title>
<polygon fill="white" stroke="none" points="-4,4 -4,-468 747.24,-468 747.24,4 -4,4"/>
<!-- Agent -->
<g id="node1" class="node"><title>Agent</title>
<path fill="none" stroke="black" d="M465.611,-349C465.611,-349 580.87,-349 580.87,-349 586.87,-349 592.87,-355 592.87,-361 592.87,-361 592.87,-451 592.87,-451 592.87,-457 586.87,-463 580.87,-463 580.87,-463 465.611,-463 465.611,-463 459.611,-463 453.611,-457 453.611,-451 453.611,-451 453.611,-361 453.611,-361 453.611,-355 459.611,-349 465.611,-349"/>
<text text-anchor="middle" x="523.24" y="-447.8" font-family="Times,serif" font-size="14.00">Agent</text>
<polyline fill="none" stroke="black" points="453.611,-441 592.87,-441 "/>
<text text-anchor="start" x="461.611" y="-425.8" font-family="Times,serif" font-size="14.00">id :integer</text>
<text text-anchor="start" x="461.611" y="-411.8" font-family="Times,serif" font-size="14.00">first_name :string</text>
<text text-anchor="start" x="461.611" y="-397.8" font-family="Times,serif" font-size="14.00">last_name :string</text>
<text text-anchor="start" x="461.611" y="-383.8" font-family="Times,serif" font-size="14.00">phone_number :string</text>
<text text-anchor="start" x="461.611" y="-369.8" font-family="Times,serif" font-size="14.00">created_at :datetime</text>
<text text-anchor="start" x="461.611" y="-355.8" font-family="Times,serif" font-size="14.00">updated_at :datetime</text>
</g>
<!-- Band -->
<g id="node4" class="node"><title>Band</title>
<path fill="none" stroke="black" d="M433.735,-176C433.735,-176 542.746,-176 542.746,-176 548.746,-176 554.746,-182 554.746,-188 554.746,-188 554.746,-278 554.746,-278 554.746,-284 548.746,-290 542.746,-290 542.746,-290 433.735,-290 433.735,-290 427.735,-290 421.735,-284 421.735,-278 421.735,-278 421.735,-188 421.735,-188 421.735,-182 427.735,-176 433.735,-176"/>
<text text-anchor="middle" x="488.24" y="-274.8" font-family="Times,serif" font-size="14.00">Band</text>
<polyline fill="none" stroke="black" points="421.735,-268 554.746,-268 "/>
<text text-anchor="start" x="429.735" y="-252.8" font-family="Times,serif" font-size="14.00">id :integer</text>
<text text-anchor="start" x="429.735" y="-238.8" font-family="Times,serif" font-size="14.00">name :string</text>
<text text-anchor="start" x="429.735" y="-224.8" font-family="Times,serif" font-size="14.00">signed_on :date</text>
<text text-anchor="start" x="429.735" y="-210.8" font-family="Times,serif" font-size="14.00">agent_id :integer</text>
<text text-anchor="start" x="429.735" y="-196.8" font-family="Times,serif" font-size="14.00">created_at :datetime</text>
<text text-anchor="start" x="429.735" y="-182.8" font-family="Times,serif" font-size="14.00">updated_at :datetime</text>
</g>
<!-- Agent&#45;&gt;Band -->
<g id="edge1" class="edge"><title>Agent&#45;&gt;Band</title>
<path fill="none" stroke="#214187" d="M553.389,-340.856C554.409,-332.476 553.965,-324.019 551.24,-316 549.316,-310.338 546.826,-304.76 543.95,-299.342"/>
<ellipse fill="none" stroke="#214187" cx="552.68" cy="-344.911" rx="4.00001" ry="4.00001"/>
<polygon fill="#214187" stroke="#214187" points="543.778,-299.045 542.673,-288.135 541.277,-294.716 538.776,-290.386 538.776,-290.386 538.776,-290.386 541.277,-294.716 534.88,-292.637 543.778,-299.045 543.778,-299.045"/>
</g>
<!-- Album -->
<g id="node2" class="node"><title>Album</title>
<path fill="none" stroke="black" d="M622.735,-356C622.735,-356 731.746,-356 731.746,-356 737.746,-356 743.746,-362 743.746,-368 743.746,-368 743.746,-444 743.746,-444 743.746,-450 737.746,-456 731.746,-456 731.746,-456 622.735,-456 622.735,-456 616.735,-456 610.735,-450 610.735,-444 610.735,-444 610.735,-368 610.735,-368 610.735,-362 616.735,-356 622.735,-356"/>
<text text-anchor="middle" x="677.24" y="-440.8" font-family="Times,serif" font-size="14.00">Album</text>
<polyline fill="none" stroke="black" points="610.735,-434 743.746,-434 "/>
<text text-anchor="start" x="618.735" y="-418.8" font-family="Times,serif" font-size="14.00">id :integer</text>
<text text-anchor="start" x="618.735" y="-404.8" font-family="Times,serif" font-size="14.00">title :string</text>
<text text-anchor="start" x="618.735" y="-390.8" font-family="Times,serif" font-size="14.00">released_on :date</text>
<text text-anchor="start" x="618.735" y="-376.8" font-family="Times,serif" font-size="14.00">created_at :datetime</text>
<text text-anchor="start" x="618.735" y="-362.8" font-family="Times,serif" font-size="14.00">updated_at :datetime</text>
</g>
<!-- Album&#45;&gt;Band -->
<g id="edge3" class="edge"><title>Album&#45;&gt;Band</title>
<path fill="none" stroke="#635f87" d="M615.508,-349.147C597.076,-332.47 576.746,-314.077 557.847,-296.977"/>
<polygon fill="#635f87" stroke="#635f87" points="615.665,-349.289 620.061,-359.335 619.373,-352.644 623.08,-355.998 623.08,-355.998 623.08,-355.998 619.373,-352.644 626.099,-352.661 615.665,-349.289 615.665,-349.289"/>
<polygon fill="#635f87" stroke="#635f87" points="557.819,-296.953 553.423,-286.907 554.112,-293.598 550.404,-290.243 550.404,-290.243 550.404,-290.243 554.112,-293.598 547.385,-293.58 557.819,-296.953 557.819,-296.953"/>
</g>
<!-- Track -->
<g id="node7" class="node"><title>Track</title>
<path fill="none" stroke="black" d="M538.735,-1C538.735,-1 647.746,-1 647.746,-1 653.746,-1 659.746,-7 659.746,-13 659.746,-13 659.746,-117 659.746,-117 659.746,-123 653.746,-129 647.746,-129 647.746,-129 538.735,-129 538.735,-129 532.735,-129 526.735,-123 526.735,-117 526.735,-117 526.735,-13 526.735,-13 526.735,-7 532.735,-1 538.735,-1"/>
<text text-anchor="middle" x="593.24" y="-113.8" font-family="Times,serif" font-size="14.00">Track</text>
<polyline fill="none" stroke="black" points="526.735,-107 659.746,-107 "/>
<text text-anchor="start" x="534.735" y="-91.8" font-family="Times,serif" font-size="14.00">id :integer</text>
<text text-anchor="start" x="534.735" y="-77.8" font-family="Times,serif" font-size="14.00">title :string</text>
<text text-anchor="start" x="534.735" y="-63.8" font-family="Times,serif" font-size="14.00">seconds :integer</text>
<text text-anchor="start" x="534.735" y="-49.8" font-family="Times,serif" font-size="14.00">released_on :date</text>
<text text-anchor="start" x="534.735" y="-35.8" font-family="Times,serif" font-size="14.00">band_id :integer</text>
<text text-anchor="start" x="534.735" y="-21.8" font-family="Times,serif" font-size="14.00">created_at :datetime</text>
<text text-anchor="start" x="534.735" y="-7.8" font-family="Times,serif" font-size="14.00">updated_at :datetime</text>
</g>
<!-- Album&#45;&gt;Track -->
<g id="edge2" class="edge"><title>Album&#45;&gt;Track</title>
<path fill="none" stroke="#19f09b" d="M662.597,-345.903C648.367,-288.477 626.722,-201.123 611.403,-139.298"/>
<polygon fill="#19f09b" stroke="#19f09b" points="662.621,-346 660.658,-356.789 663.823,-350.853 665.026,-355.706 665.026,-355.706 665.026,-355.706 663.823,-350.853 669.394,-354.624 662.621,-346 662.621,-346"/>
<polygon fill="#19f09b" stroke="#19f09b" points="611.31,-138.926 613.273,-128.137 610.108,-134.073 608.905,-129.22 608.905,-129.22 608.905,-129.22 610.108,-134.073 604.537,-130.302 611.31,-138.926 611.31,-138.926"/>
</g>
<!-- Artist -->
<g id="node3" class="node"><title>Artist</title>
<path fill="none" stroke="black" d="M273.735,-356C273.735,-356 382.746,-356 382.746,-356 388.746,-356 394.746,-362 394.746,-368 394.746,-368 394.746,-444 394.746,-444 394.746,-450 388.746,-456 382.746,-456 382.746,-456 273.735,-456 273.735,-456 267.735,-456 261.735,-450 261.735,-444 261.735,-444 261.735,-368 261.735,-368 261.735,-362 267.735,-356 273.735,-356"/>
<text text-anchor="middle" x="328.24" y="-440.8" font-family="Times,serif" font-size="14.00">Artist</text>
<polyline fill="none" stroke="black" points="261.735,-434 394.746,-434 "/>
<text text-anchor="start" x="269.735" y="-418.8" font-family="Times,serif" font-size="14.00">id :integer</text>
<text text-anchor="start" x="269.735" y="-404.8" font-family="Times,serif" font-size="14.00">name :string</text>
<text text-anchor="start" x="269.735" y="-390.8" font-family="Times,serif" font-size="14.00">date_of_birth :date</text>
<text text-anchor="start" x="269.735" y="-376.8" font-family="Times,serif" font-size="14.00">created_at :datetime</text>
<text text-anchor="start" x="269.735" y="-362.8" font-family="Times,serif" font-size="14.00">updated_at :datetime</text>
</g>
<!-- Artist&#45;&gt;Band -->
<g id="edge8" class="edge"><title>Artist&#45;&gt;Band</title>
<path fill="none" stroke="#6f5591" d="M348.054,-346.844C353.291,-335.94 359.652,-325.117 367.24,-316 380.027,-300.636 396.401,-286.963 412.943,-275.396"/>
<polygon fill="#6f5591" stroke="#6f5591" points="348.04,-346.876 339.817,-354.131 345.978,-351.431 343.917,-355.986 343.917,-355.986 343.917,-355.986 345.978,-351.431 348.017,-357.841 348.04,-346.876 348.04,-346.876"/>
<polygon fill="#6f5591" stroke="#6f5591" points="413.311,-275.147 424.114,-273.267 417.451,-272.344 421.591,-269.541 421.591,-269.541 421.591,-269.541 417.451,-272.344 419.068,-265.815 413.311,-275.147 413.311,-275.147"/>
</g>
<!-- Artist&#45;&gt;Band -->
<g id="edge9" class="edge"><title>Artist&#45;&gt;Band</title>
<path fill="none" stroke="#e19789" d="M362.345,-347.581C369.869,-336.639 378.216,-325.614 386.936,-316 395.153,-306.941 404.416,-298.052 413.917,-289.665"/>
<polygon fill="#e19789" stroke="#e19789" points="362.331,-347.603 353.022,-353.4 359.545,-351.755 356.759,-355.907 356.759,-355.907 356.759,-355.907 359.545,-351.755 360.496,-358.414 362.331,-347.603 362.331,-347.603"/>
<polygon fill="#e19789" stroke="#e19789" points="414.004,-289.589 424.514,-286.458 417.788,-286.321 421.572,-283.053 421.572,-283.053 421.572,-283.053 417.788,-286.321 418.631,-279.647 414.004,-289.589 414.004,-289.589"/>
<text text-anchor="middle" x="426.892" y="-318.8" font-family="Times,serif" font-size="14.00">current_bands</text>
</g>
<!-- Artist&#45;&gt;Band -->
<g id="edge10" class="edge"><title>Artist&#45;&gt;Band</title>
<path fill="none" stroke="#2326b4" d="M404.034,-367.162C433.571,-351.792 461.535,-336.201 466.24,-330 472.888,-321.24 477.583,-310.823 480.889,-300.133"/>
<polygon fill="#2326b4" stroke="#2326b4" points="403.724,-367.322 392.774,-367.917 399.282,-369.619 394.84,-371.915 394.84,-371.915 394.84,-371.915 399.282,-369.619 396.907,-375.912 403.724,-367.322 403.724,-367.322"/>
<polygon fill="#2326b4" stroke="#2326b4" points="480.942,-299.934 487.894,-291.453 482.246,-295.107 483.55,-290.28 483.55,-290.28 483.55,-290.28 482.246,-295.107 479.205,-289.107 480.942,-299.934 480.942,-299.934"/>
<text text-anchor="middle" x="506.347" y="-318.8" font-family="Times,serif" font-size="14.00">past_bands</text>
</g>
<!-- Stint -->
<g id="node5" class="node"><title>Stint</title>
<path fill="none" stroke="black" d="M186.735,-1C186.735,-1 295.746,-1 295.746,-1 301.746,-1 307.746,-7 307.746,-13 307.746,-13 307.746,-117 307.746,-117 307.746,-123 301.746,-129 295.746,-129 295.746,-129 186.735,-129 186.735,-129 180.735,-129 174.735,-123 174.735,-117 174.735,-117 174.735,-13 174.735,-13 174.735,-7 180.735,-1 186.735,-1"/>
<text text-anchor="middle" x="241.24" y="-113.8" font-family="Times,serif" font-size="14.00">Stint</text>
<polyline fill="none" stroke="black" points="174.735,-107 307.746,-107 "/>
<text text-anchor="start" x="182.735" y="-91.8" font-family="Times,serif" font-size="14.00">id :integer</text>
<text text-anchor="start" x="182.735" y="-77.8" font-family="Times,serif" font-size="14.00">start_date :date</text>
<text text-anchor="start" x="182.735" y="-63.8" font-family="Times,serif" font-size="14.00">end_date :date</text>
<text text-anchor="start" x="182.735" y="-49.8" font-family="Times,serif" font-size="14.00">band_id :integer</text>
<text text-anchor="start" x="182.735" y="-35.8" font-family="Times,serif" font-size="14.00">artist_id :integer</text>
<text text-anchor="start" x="182.735" y="-21.8" font-family="Times,serif" font-size="14.00">created_at :datetime</text>
<text text-anchor="start" x="182.735" y="-7.8" font-family="Times,serif" font-size="14.00">updated_at :datetime</text>
</g>
<!-- Artist&#45;&gt;Stint -->
<g id="edge5" class="edge"><title>Artist&#45;&gt;Stint</title>
<path fill="none" stroke="#387b8e" d="M253.226,-402.231C180.797,-395.053 74.8429,-371.663 24.0331,-298 -8.77247,-250.439 -6.94505,-216.771 24.0331,-168 54.8159,-119.536 115.403,-93.6922 164.784,-80.1586"/>
<ellipse fill="none" stroke="#387b8e" cx="257.463" cy="-402.622" rx="4" ry="4"/>
<polygon fill="#387b8e" stroke="#387b8e" points="164.825,-80.1478 175.639,-81.966 169.662,-78.8804 174.498,-77.6129 174.498,-77.6129 174.498,-77.6129 169.662,-78.8804 173.358,-73.2599 164.825,-80.1478 164.825,-80.1478"/>
<text text-anchor="middle" x="62.3437" y="-228.8" font-family="Times,serif" font-size="14.00">current_stints</text>
</g>
<!-- Artist&#45;&gt;Stint -->
<g id="edge6" class="edge"><title>Artist&#45;&gt;Stint</title>
<path fill="none" stroke="#cd111a" d="M254.08,-385.559C210.001,-369.766 157.662,-342.603 131.123,-298 101.579,-248.347 107.996,-220.947 131.123,-168 139.162,-149.596 152.34,-133.029 166.835,-118.861"/>
<ellipse fill="none" stroke="#cd111a" cx="257.862" cy="-386.873" rx="4.00001" ry="4.00001"/>
<polygon fill="#cd111a" stroke="#cd111a" points="167.213,-118.507 177.589,-114.959 170.864,-115.09 174.514,-111.674 174.514,-111.674 174.514,-111.674 170.864,-115.09 171.439,-108.388 167.213,-118.507 167.213,-118.507"/>
<text text-anchor="middle" x="160.799" y="-228.8" font-family="Times,serif" font-size="14.00">past_stints</text>
</g>
<!-- Artist&#45;&gt;Stint -->
<g id="edge7" class="edge"><title>Artist&#45;&gt;Stint</title>
<path fill="none" stroke="#e5352f" d="M344.756,-347.719C355.951,-298.247 364.855,-225.819 341.24,-168 335.106,-152.98 325.576,-138.976 314.787,-126.449"/>
<ellipse fill="none" stroke="#e5352f" cx="343.784" cy="-351.868" rx="4.00001" ry="4.00001"/>
<polygon fill="#e5352f" stroke="#e5352f" points="314.624,-126.269 311.266,-115.83 311.275,-122.556 307.925,-118.844 307.925,-118.844 307.925,-118.844 311.275,-122.556 304.584,-121.859 314.624,-126.269 314.624,-126.269"/>
</g>
<!-- SuperFan -->
<g id="node6" class="node"><title>SuperFan</title>
<path fill="none" stroke="black" d="M211.342,-169C211.342,-169 321.139,-169 321.139,-169 327.139,-169 333.139,-175 333.139,-181 333.139,-181 333.139,-285 333.139,-285 333.139,-291 327.139,-297 321.139,-297 321.139,-297 211.342,-297 211.342,-297 205.342,-297 199.342,-291 199.342,-285 199.342,-285 199.342,-181 199.342,-181 199.342,-175 205.342,-169 211.342,-169"/>
<text text-anchor="middle" x="266.24" y="-281.8" font-family="Times,serif" font-size="14.00">SuperFan</text>
<polyline fill="none" stroke="black" points="199.342,-275 333.139,-275 "/>
<text text-anchor="start" x="207.342" y="-259.8" font-family="Times,serif" font-size="14.00">id :integer</text>
<text text-anchor="start" x="207.342" y="-245.8" font-family="Times,serif" font-size="14.00">first_name :string</text>
<text text-anchor="start" x="207.342" y="-231.8" font-family="Times,serif" font-size="14.00">last_name :string</text>
<text text-anchor="start" x="207.342" y="-217.8" font-family="Times,serif" font-size="14.00">artist_id :integer</text>
<text text-anchor="start" x="207.342" y="-203.8" font-family="Times,serif" font-size="14.00">parole_officer :string</text>
<text text-anchor="start" x="207.342" y="-189.8" font-family="Times,serif" font-size="14.00">created_at :datetime</text>
<text text-anchor="start" x="207.342" y="-175.8" font-family="Times,serif" font-size="14.00">updated_at :datetime</text>
</g>
<!-- Artist&#45;&gt;SuperFan -->
<g id="edge4" class="edge"><title>Artist&#45;&gt;SuperFan</title>
<path fill="none" stroke="#228ae3" d="M307.611,-348.102C302.789,-334.804 297.589,-320.461 292.557,-306.584"/>
<ellipse fill="none" stroke="#228ae3" cx="309.11" cy="-352.238" rx="4.00001" ry="4.00001"/>
<polygon fill="#228ae3" stroke="#228ae3" points="292.516,-306.47 293.338,-295.535 290.812,-301.769 289.107,-297.069 289.107,-297.069 289.107,-297.069 290.812,-301.769 284.877,-298.603 292.516,-306.47 292.516,-306.47"/>
</g>
<!-- Band&#45;&gt;Stint -->
<g id="edge12" class="edge"><title>Band&#45;&gt;Stint</title>
<path fill="none" stroke="#863422" d="M414.691,-175.846C401.691,-166.348 388.176,-156.74 375.24,-148 356.524,-135.355 335.894,-122.309 316.547,-110.446"/>
<ellipse fill="none" stroke="#863422" cx="418.211" cy="-178.43" rx="4.00002" ry="4.00002"/>
<polygon fill="#863422" stroke="#863422" points="316.296,-110.293 310.103,-101.243 312.028,-107.689 307.759,-105.084 307.759,-105.084 307.759,-105.084 312.028,-107.689 305.415,-108.926 316.296,-110.293 316.296,-110.293"/>
</g>
<!-- Band&#45;&gt;Track -->
<g id="edge11" class="edge"><title>Band&#45;&gt;Track</title>
<path fill="none" stroke="#bb791a" d="M528.277,-168.703C534.66,-158.613 541.303,-148.111 547.799,-137.841"/>
<ellipse fill="none" stroke="#bb791a" cx="525.927" cy="-172.419" rx="4.00002" ry="4.00002"/>
<polygon fill="#bb791a" stroke="#bb791a" points="547.866,-137.734 557.015,-131.688 550.539,-133.508 553.212,-129.283 553.212,-129.283 553.212,-129.283 550.539,-133.508 549.409,-126.877 547.866,-137.734 547.866,-137.734"/>
</g>
</g>
</svg>
