<?xml version="1.0" encoding="UTF-8" standalone="no"?>
<!DOCTYPE svg PUBLIC "-//W3C//DTD SVG 1.1//EN"
 "http://www.w3.org/Graphics/SVG/1.1/DTD/svg11.dtd">
<!-- Generated by graphviz version 2.36.0 (20140111.2315)
 -->
<!-- Title: models_diagram Pages: 1 -->
<svg width="454pt" height="456pt"
 viewBox="0.00 0.00 453.62 456.00" xmlns="http://www.w3.org/2000/svg" xmlns:xlink="http://www.w3.org/1999/xlink">
<g id="graph0" class="graph" transform="scale(1 1) rotate(0) translate(4 452)">
<title>models_diagram</title>
<polygon fill="white" stroke="none" points="-4,4 -4,-452 449.621,-452 449.621,4 -4,4"/>
<!-- Agent -->
<g id="node1" class="node"><title>Agent</title>
<path fill="none" stroke="black" d="M167.992,-333C167.992,-333 283.25,-333 283.25,-333 289.25,-333 295.25,-339 295.25,-345 295.25,-345 295.25,-435 295.25,-435 295.25,-441 289.25,-447 283.25,-447 283.25,-447 167.992,-447 167.992,-447 161.992,-447 155.992,-441 155.992,-435 155.992,-435 155.992,-345 155.992,-345 155.992,-339 161.992,-333 167.992,-333"/>
<text text-anchor="middle" x="225.621" y="-431.8" font-family="Times,serif" font-size="14.00">Agent</text>
<polyline fill="none" stroke="black" points="155.992,-425 295.25,-425 "/>
<text text-anchor="start" x="163.992" y="-409.8" font-family="Times,serif" font-size="14.00">id :integer</text>
<text text-anchor="start" x="163.992" y="-395.8" font-family="Times,serif" font-size="14.00">first_name :string</text>
<text text-anchor="start" x="163.992" y="-381.8" font-family="Times,serif" font-size="14.00">last_name :string</text>
<text text-anchor="start" x="163.992" y="-367.8" font-family="Times,serif" font-size="14.00">phone_number :string</text>
<text text-anchor="start" x="163.992" y="-353.8" font-family="Times,serif" font-size="14.00">created_at :datetime</text>
<text text-anchor="start" x="163.992" y="-339.8" font-family="Times,serif" font-size="14.00">updated_at :datetime</text>
</g>
<!-- Band -->
<g id="node4" class="node"><title>Band</title>
<path fill="none" stroke="black" d="M186.116,-174C186.116,-174 295.126,-174 295.126,-174 301.126,-174 307.126,-180 307.126,-186 307.126,-186 307.126,-276 307.126,-276 307.126,-282 301.126,-288 295.126,-288 295.126,-288 186.116,-288 186.116,-288 180.116,-288 174.116,-282 174.116,-276 174.116,-276 174.116,-186 174.116,-186 174.116,-180 180.116,-174 186.116,-174"/>
<text text-anchor="middle" x="240.621" y="-272.8" font-family="Times,serif" font-size="14.00">Band</text>
<polyline fill="none" stroke="black" points="174.116,-266 307.126,-266 "/>
<text text-anchor="start" x="182.116" y="-250.8" font-family="Times,serif" font-size="14.00">id :integer</text>
<text text-anchor="start" x="182.116" y="-236.8" font-family="Times,serif" font-size="14.00">name :string</text>
<text text-anchor="start" x="182.116" y="-222.8" font-family="Times,serif" font-size="14.00">signed_on :date</text>
<text text-anchor="start" x="182.116" y="-208.8" font-family="Times,serif" font-size="14.00">agent_id :integer</text>
<text text-anchor="start" x="182.116" y="-194.8" font-family="Times,serif" font-size="14.00">created_at :datetime</text>
<text text-anchor="start" x="182.116" y="-180.8" font-family="Times,serif" font-size="14.00">updated_at :datetime</text>
</g>
<!-- Agent&#45;&gt;Band -->
<g id="edge1" class="edge"><title>Agent&#45;&gt;Band</title>
<path fill="none" stroke="#302585" d="M231.784,-324.494C232.613,-315.819 233.464,-306.908 234.296,-298.204"/>
<ellipse fill="none" stroke="#302585" cx="231.374" cy="-328.781" rx="4" ry="4"/>
<polygon fill="#302585" stroke="#302585" points="234.309,-298.063 239.74,-288.536 234.785,-293.086 235.26,-288.108 235.26,-288.108 235.26,-288.108 234.785,-293.086 230.781,-287.68 234.309,-298.063 234.309,-298.063"/>
</g>
<!-- Album -->
<g id="node2" class="node"><title>Album</title>
<path fill="none" stroke="black" d="M325.116,-340C325.116,-340 434.126,-340 434.126,-340 440.126,-340 446.126,-346 446.126,-352 446.126,-352 446.126,-428 446.126,-428 446.126,-434 440.126,-440 434.126,-440 434.126,-440 325.116,-440 325.116,-440 319.116,-440 313.116,-434 313.116,-428 313.116,-428 313.116,-352 313.116,-352 313.116,-346 319.116,-340 325.116,-340"/>
<text text-anchor="middle" x="379.621" y="-424.8" font-family="Times,serif" font-size="14.00">Album</text>
<polyline fill="none" stroke="black" points="313.116,-418 446.126,-418 "/>
<text text-anchor="start" x="321.116" y="-402.8" font-family="Times,serif" font-size="14.00">id :integer</text>
<text text-anchor="start" x="321.116" y="-388.8" font-family="Times,serif" font-size="14.00">title :string</text>
<text text-anchor="start" x="321.116" y="-374.8" font-family="Times,serif" font-size="14.00">released_on :date</text>
<text text-anchor="start" x="321.116" y="-360.8" font-family="Times,serif" font-size="14.00">created_at :datetime</text>
<text text-anchor="start" x="321.116" y="-346.8" font-family="Times,serif" font-size="14.00">updated_at :datetime</text>
</g>
<!-- Album&#45;&gt;Band -->
<g id="edge3" class="edge"><title>Album&#45;&gt;Band</title>
<path fill="none" stroke="#5168b9" d="M329.113,-331.951C318.756,-320.254 307.79,-307.868 297.235,-295.946"/>
<polygon fill="#5168b9" stroke="#5168b9" points="329.393,-332.268 332.653,-342.738 332.707,-336.011 336.022,-339.755 336.022,-339.755 336.022,-339.755 332.707,-336.011 339.391,-336.772 329.393,-332.268 329.393,-332.268"/>
<polygon fill="#5168b9" stroke="#5168b9" points="296.998,-295.678 293.738,-285.207 293.684,-291.934 290.369,-288.19 290.369,-288.19 290.369,-288.19 293.684,-291.934 287,-291.173 296.998,-295.678 296.998,-295.678"/>
</g>
<!-- Track -->
<g id="node7" class="node"><title>Track</title>
<path fill="none" stroke="black" d="M241.116,-1C241.116,-1 350.126,-1 350.126,-1 356.126,-1 362.126,-7 362.126,-13 362.126,-13 362.126,-117 362.126,-117 362.126,-123 356.126,-129 350.126,-129 350.126,-129 241.116,-129 241.116,-129 235.116,-129 229.116,-123 229.116,-117 229.116,-117 229.116,-13 229.116,-13 229.116,-7 235.116,-1 241.116,-1"/>
<text text-anchor="middle" x="295.621" y="-113.8" font-family="Times,serif" font-size="14.00">Track</text>
<polyline fill="none" stroke="black" points="229.116,-107 362.126,-107 "/>
<text text-anchor="start" x="237.116" y="-91.8" font-family="Times,serif" font-size="14.00">id :integer</text>
<text text-anchor="start" x="237.116" y="-77.8" font-family="Times,serif" font-size="14.00">title :string</text>
<text text-anchor="start" x="237.116" y="-63.8" font-family="Times,serif" font-size="14.00">seconds :integer</text>
<text text-anchor="start" x="237.116" y="-49.8" font-family="Times,serif" font-size="14.00">released_on :date</text>
<text text-anchor="start" x="237.116" y="-35.8" font-family="Times,serif" font-size="14.00">band_id :integer</text>
<text text-anchor="start" x="237.116" y="-21.8" font-family="Times,serif" font-size="14.00">created_at :datetime</text>
<text text-anchor="start" x="237.116" y="-7.8" font-family="Times,serif" font-size="14.00">updated_at :datetime</text>
</g>
<!-- Album&#45;&gt;Track -->
<g id="edge2" class="edge"><title>Album&#45;&gt;Track</title>
<path fill="none" stroke="#d567ae" d="M364.284,-330.025C350.303,-276.267 329.603,-196.669 314.588,-138.933"/>
<polygon fill="#d567ae" stroke="#d567ae" points="364.346,-330.265 362.508,-341.076 365.605,-335.104 366.863,-339.943 366.863,-339.943 366.863,-339.943 365.605,-335.104 371.218,-338.811 364.346,-330.265 364.346,-330.265"/>
<polygon fill="#d567ae" stroke="#d567ae" points="314.559,-138.82 316.397,-128.009 313.3,-133.981 312.042,-129.142 312.042,-129.142 312.042,-129.142 313.3,-133.981 307.687,-130.275 314.559,-138.82 314.559,-138.82"/>
</g>
<!-- Artist -->
<g id="node3" class="node"><title>Artist</title>
<path fill="none" stroke="black" d="M17.1156,-340C17.1156,-340 126.126,-340 126.126,-340 132.126,-340 138.126,-346 138.126,-352 138.126,-352 138.126,-428 138.126,-428 138.126,-434 132.126,-440 126.126,-440 126.126,-440 17.1156,-440 17.1156,-440 11.1156,-440 5.11562,-434 5.11562,-428 5.11562,-428 5.11562,-352 5.11562,-352 5.11562,-346 11.1156,-340 17.1156,-340"/>
<text text-anchor="middle" x="71.621" y="-424.8" font-family="Times,serif" font-size="14.00">Artist</text>
<polyline fill="none" stroke="black" points="5.11562,-418 138.126,-418 "/>
<text text-anchor="start" x="13.1156" y="-402.8" font-family="Times,serif" font-size="14.00">id :integer</text>
<text text-anchor="start" x="13.1156" y="-388.8" font-family="Times,serif" font-size="14.00">name :string</text>
<text text-anchor="start" x="13.1156" y="-374.8" font-family="Times,serif" font-size="14.00">date_of_birth :date</text>
<text text-anchor="start" x="13.1156" y="-360.8" font-family="Times,serif" font-size="14.00">created_at :datetime</text>
<text text-anchor="start" x="13.1156" y="-346.8" font-family="Times,serif" font-size="14.00">updated_at :datetime</text>
</g>
<!-- Artist&#45;&gt;Band -->
<g id="edge6" class="edge"><title>Artist&#45;&gt;Band</title>
<path fill="none" stroke="#5610c7" d="M132.179,-332.742C145.334,-320.521 159.334,-307.515 172.751,-295.051"/>
<polygon fill="#5610c7" stroke="#5610c7" points="131.956,-332.949 121.567,-336.458 128.293,-336.352 124.63,-339.755 124.63,-339.755 124.63,-339.755 128.293,-336.352 127.693,-343.052 131.956,-332.949 131.956,-332.949"/>
<polygon fill="#5610c7" stroke="#5610c7" points="172.809,-294.997 183.199,-291.487 176.473,-291.594 180.136,-288.19 180.136,-288.19 180.136,-288.19 176.473,-291.594 177.073,-284.894 172.809,-294.997 172.809,-294.997"/>
</g>
<!-- Stint -->
<g id="node5" class="node"><title>Stint</title>
<path fill="none" stroke="black" d="M43.1156,-1C43.1156,-1 152.126,-1 152.126,-1 158.126,-1 164.126,-7 164.126,-13 164.126,-13 164.126,-117 164.126,-117 164.126,-123 158.126,-129 152.126,-129 152.126,-129 43.1156,-129 43.1156,-129 37.1156,-129 31.1156,-123 31.1156,-117 31.1156,-117 31.1156,-13 31.1156,-13 31.1156,-7 37.1156,-1 43.1156,-1"/>
<text text-anchor="middle" x="97.621" y="-113.8" font-family="Times,serif" font-size="14.00">Stint</text>
<polyline fill="none" stroke="black" points="31.1156,-107 164.126,-107 "/>
<text text-anchor="start" x="39.1156" y="-91.8" font-family="Times,serif" font-size="14.00">id :integer</text>
<text text-anchor="start" x="39.1156" y="-77.8" font-family="Times,serif" font-size="14.00">start_date :date</text>
<text text-anchor="start" x="39.1156" y="-63.8" font-family="Times,serif" font-size="14.00">end_date :date</text>
<text text-anchor="start" x="39.1156" y="-49.8" font-family="Times,serif" font-size="14.00">band_id :integer</text>
<text text-anchor="start" x="39.1156" y="-35.8" font-family="Times,serif" font-size="14.00">artist_id :integer</text>
<text text-anchor="start" x="39.1156" y="-21.8" font-family="Times,serif" font-size="14.00">created_at :datetime</text>
<text text-anchor="start" x="39.1156" y="-7.8" font-family="Times,serif" font-size="14.00">updated_at :datetime</text>
</g>
<!-- Artist&#45;&gt;Stint -->
<g id="edge5" class="edge"><title>Artist&#45;&gt;Stint</title>
<path fill="none" stroke="#31a6c3" d="M29.6977,-332.698C23.0684,-321.1 17.2206,-308.574 13.621,-296 -2.28048,-240.453 -6.15451,-220.288 13.621,-166 17.2083,-156.152 22.2391,-146.6 28.075,-137.558"/>
<ellipse fill="none" stroke="#31a6c3" cx="31.8696" cy="-336.352" rx="4.00002" ry="4.00002"/>
<polygon fill="#31a6c3" stroke="#31a6c3" points="28.2483,-137.305 37.6097,-131.594 31.0722,-133.178 33.8961,-129.052 33.8961,-129.052 33.8961,-129.052 31.0722,-133.178 30.1824,-126.511 28.2483,-137.305 28.2483,-137.305"/>
</g>
<!-- SuperFan -->
<g id="node6" class="node"><title>SuperFan</title>
<path fill="none" stroke="black" d="M34.7226,-167C34.7226,-167 144.519,-167 144.519,-167 150.519,-167 156.519,-173 156.519,-179 156.519,-179 156.519,-283 156.519,-283 156.519,-289 150.519,-295 144.519,-295 144.519,-295 34.7226,-295 34.7226,-295 28.7226,-295 22.7226,-289 22.7226,-283 22.7226,-283 22.7226,-179 22.7226,-179 22.7226,-173 28.7226,-167 34.7226,-167"/>
<text text-anchor="middle" x="89.621" y="-279.8" font-family="Times,serif" font-size="14.00">SuperFan</text>
<polyline fill="none" stroke="black" points="22.7226,-273 156.519,-273 "/>
<text text-anchor="start" x="30.7226" y="-257.8" font-family="Times,serif" font-size="14.00">id :integer</text>
<text text-anchor="start" x="30.7226" y="-243.8" font-family="Times,serif" font-size="14.00">first_name :string</text>
<text text-anchor="start" x="30.7226" y="-229.8" font-family="Times,serif" font-size="14.00">last_name :string</text>
<text text-anchor="start" x="30.7226" y="-215.8" font-family="Times,serif" font-size="14.00">artist_id :integer</text>
<text text-anchor="start" x="30.7226" y="-201.8" font-family="Times,serif" font-size="14.00">parole_officer :string</text>
<text text-anchor="start" x="30.7226" y="-187.8" font-family="Times,serif" font-size="14.00">created_at :datetime</text>
<text text-anchor="start" x="30.7226" y="-173.8" font-family="Times,serif" font-size="14.00">updated_at :datetime</text>
</g>
<!-- Artist&#45;&gt;SuperFan -->
<g id="edge4" class="edge"><title>Artist&#45;&gt;SuperFan</title>
<path fill="none" stroke="#87997f" d="M78.1936,-331.673C79.2556,-322.41 80.3663,-312.722 81.4603,-303.179"/>
<ellipse fill="none" stroke="#87997f" cx="77.7226" cy="-335.781" rx="4.00001" ry="4.00001"/>
<ellipse fill="#87997f" stroke="#87997f" cx="81.9183" cy="-299.184" rx="4.00001" ry="4.00001"/>
</g>
<!-- Band&#45;&gt;Stint -->
<g id="edge8" class="edge"><title>Band&#45;&gt;Stint</title>
<path fill="none" stroke="#b0c3bc" d="M186.07,-167.438C177.323,-157.407 168.217,-146.964 159.318,-136.757"/>
<ellipse fill="none" stroke="#b0c3bc" cx="188.78" cy="-170.546" rx="4.00002" ry="4.00002"/>
<polygon fill="#b0c3bc" stroke="#b0c3bc" points="159.134,-136.546 155.954,-126.052 155.848,-132.778 152.562,-129.009 152.562,-129.009 152.562,-129.009 155.848,-132.778 149.17,-131.966 159.134,-136.546 159.134,-136.546"/>
</g>
<!-- Band&#45;&gt;Track -->
<g id="edge7" class="edge"><title>Band&#45;&gt;Track</title>
<path fill="none" stroke="#26f8b4" d="M262.179,-165.718C265.152,-156.854 268.222,-147.7 271.241,-138.697"/>
<ellipse fill="none" stroke="#26f8b4" cx="260.821" cy="-169.768" rx="4.00001" ry="4.00001"/>
<polygon fill="#26f8b4" stroke="#26f8b4" points="271.31,-138.49 278.756,-130.44 272.9,-133.75 274.49,-129.009 274.49,-129.009 274.49,-129.009 272.9,-133.75 270.223,-127.578 271.31,-138.49 271.31,-138.49"/>
</g>
</g>
</svg>
