<?xml version="1.0" encoding="UTF-8" standalone="no"?>
<!DOCTYPE svg PUBLIC "-//W3C//DTD SVG 1.1//EN"
 "http://www.w3.org/Graphics/SVG/1.1/DTD/svg11.dtd">
<!-- Generated by graphviz version 2.36.0 (20140111.2315)
 -->
<!-- Title: models_diagram Pages: 1 -->
<svg width="460pt" height="552pt"
 viewBox="0.00 0.00 460.32 552.00" xmlns="http://www.w3.org/2000/svg" xmlns:xlink="http://www.w3.org/1999/xlink">
<g id="graph0" class="graph" transform="scale(1 1) rotate(0) translate(4 548)">
<title>models_diagram</title>
<polygon fill="white" stroke="none" points="-4,4 -4,-548 456.322,-548 456.322,4 -4,4"/>
<!-- _diagram_info -->
<g id="node1" class="node"><title>_diagram_info</title>
<text text-anchor="start" x="7.31226" y="-529.1" font-family="Times,serif" font-size="13.00">Models diagram</text>
<text text-anchor="start" x="7.31226" y="-516.1" font-family="Times,serif" font-size="13.00">Date: Apr 24 2014 &#45; 16:04</text>
<text text-anchor="start" x="7.31226" y="-503.1" font-family="Times,serif" font-size="13.00">Migration version: 20140423235250</text>
<text text-anchor="start" x="7.31226" y="-490.1" font-family="Times,serif" font-size="13.00">Generated by RailRoady 1.1.1</text>
<text text-anchor="start" x="7.31226" y="-477.1" font-family="Times,serif" font-size="13.00">http://railroady.prestonlee.com</text>
</g>
<!-- Agent -->
<g id="node2" class="node"><title>Agent</title>
<path fill="none" stroke="black" d="M102.371,-319C102.371,-319 217.629,-319 217.629,-319 223.629,-319 229.629,-325 229.629,-331 229.629,-331 229.629,-421 229.629,-421 229.629,-427 223.629,-433 217.629,-433 217.629,-433 102.371,-433 102.371,-433 96.3706,-433 90.3706,-427 90.3706,-421 90.3706,-421 90.3706,-331 90.3706,-331 90.3706,-325 96.3706,-319 102.371,-319"/>
<text text-anchor="middle" x="160" y="-417.8" font-family="Times,serif" font-size="14.00">Agent</text>
<polyline fill="none" stroke="black" points="90.3706,-411 229.629,-411 "/>
<text text-anchor="start" x="98.3706" y="-395.8" font-family="Times,serif" font-size="14.00">id :integer</text>
<text text-anchor="start" x="98.3706" y="-381.8" font-family="Times,serif" font-size="14.00">first_name :string</text>
<text text-anchor="start" x="98.3706" y="-367.8" font-family="Times,serif" font-size="14.00">last_name :string</text>
<text text-anchor="start" x="98.3706" y="-353.8" font-family="Times,serif" font-size="14.00">phone_number :string</text>
<text text-anchor="start" x="98.3706" y="-339.8" font-family="Times,serif" font-size="14.00">created_at :datetime</text>
<text text-anchor="start" x="98.3706" y="-325.8" font-family="Times,serif" font-size="14.00">updated_at :datetime</text>
</g>
<!-- Band -->
<g id="node4" class="node"><title>Band</title>
<path fill="none" stroke="black" d="M203.495,-167C203.495,-167 312.505,-167 312.505,-167 318.505,-167 324.505,-173 324.505,-179 324.505,-179 324.505,-269 324.505,-269 324.505,-275 318.505,-281 312.505,-281 312.505,-281 203.495,-281 203.495,-281 197.495,-281 191.495,-275 191.495,-269 191.495,-269 191.495,-179 191.495,-179 191.495,-173 197.495,-167 203.495,-167"/>
<text text-anchor="middle" x="258" y="-265.8" font-family="Times,serif" font-size="14.00">Band</text>
<polyline fill="none" stroke="black" points="191.495,-259 324.505,-259 "/>
<text text-anchor="start" x="199.495" y="-243.8" font-family="Times,serif" font-size="14.00">id :integer</text>
<text text-anchor="start" x="199.495" y="-229.8" font-family="Times,serif" font-size="14.00">name :string</text>
<text text-anchor="start" x="199.495" y="-215.8" font-family="Times,serif" font-size="14.00">signed_on :date</text>
<text text-anchor="start" x="199.495" y="-201.8" font-family="Times,serif" font-size="14.00">agent_id :integer</text>
<text text-anchor="start" x="199.495" y="-187.8" font-family="Times,serif" font-size="14.00">created_at :datetime</text>
<text text-anchor="start" x="199.495" y="-173.8" font-family="Times,serif" font-size="14.00">updated_at :datetime</text>
</g>
<!-- Agent&#45;&gt;Band -->
<g id="edge1" class="edge"><title>Agent&#45;&gt;Band</title>
<path fill="none" stroke="#ae8149" d="M201.335,-311.732C206.113,-304.419 210.99,-296.954 215.779,-289.624"/>
<ellipse fill="none" stroke="#ae8149" cx="198.958" cy="-315.37" rx="4.00002" ry="4.00002"/>
<polygon fill="#ae8149" stroke="#ae8149" points="215.88,-289.469 225.117,-283.559 218.615,-285.284 221.349,-281.098 221.349,-281.098 221.349,-281.098 218.615,-285.284 217.582,-278.636 215.88,-289.469 215.88,-289.469"/>
</g>
<!-- Album -->
<g id="node3" class="node"><title>Album</title>
<path fill="none" stroke="black" d="M298.495,-326C298.495,-326 407.505,-326 407.505,-326 413.505,-326 419.505,-332 419.505,-338 419.505,-338 419.505,-414 419.505,-414 419.505,-420 413.505,-426 407.505,-426 407.505,-426 298.495,-426 298.495,-426 292.495,-426 286.495,-420 286.495,-414 286.495,-414 286.495,-338 286.495,-338 286.495,-332 292.495,-326 298.495,-326"/>
<text text-anchor="middle" x="353" y="-410.8" font-family="Times,serif" font-size="14.00">Album</text>
<polyline fill="none" stroke="black" points="286.495,-404 419.505,-404 "/>
<text text-anchor="start" x="294.495" y="-388.8" font-family="Times,serif" font-size="14.00">id :integer</text>
<text text-anchor="start" x="294.495" y="-374.8" font-family="Times,serif" font-size="14.00">title :string</text>
<text text-anchor="start" x="294.495" y="-360.8" font-family="Times,serif" font-size="14.00">released_on :date</text>
<text text-anchor="start" x="294.495" y="-346.8" font-family="Times,serif" font-size="14.00">created_at :datetime</text>
<text text-anchor="start" x="294.495" y="-332.8" font-family="Times,serif" font-size="14.00">updated_at :datetime</text>
</g>
<!-- Album&#45;&gt;Band -->
<g id="edge4" class="edge"><title>Album&#45;&gt;Band</title>
<path fill="none" stroke="#43563b" d="M316.507,-317.379C310.817,-308.395 304.904,-299.06 299.12,-289.927"/>
<polygon fill="#43563b" stroke="#43563b" points="316.543,-317.436 318.092,-328.292 319.218,-321.66 321.893,-325.884 321.893,-325.884 321.893,-325.884 319.218,-321.66 325.695,-323.477 316.543,-317.436 316.543,-317.436"/>
<polygon fill="#43563b" stroke="#43563b" points="298.976,-289.699 297.427,-278.843 296.301,-285.475 293.626,-281.251 293.626,-281.251 293.626,-281.251 296.301,-285.475 289.824,-283.659 298.976,-289.699 298.976,-289.699"/>
</g>
<!-- Track -->
<g id="node5" class="node"><title>Track</title>
<path fill="none" stroke="black" d="M298.495,-1C298.495,-1 407.505,-1 407.505,-1 413.505,-1 419.505,-7 419.505,-13 419.505,-13 419.505,-117 419.505,-117 419.505,-123 413.505,-129 407.505,-129 407.505,-129 298.495,-129 298.495,-129 292.495,-129 286.495,-123 286.495,-117 286.495,-117 286.495,-13 286.495,-13 286.495,-7 292.495,-1 298.495,-1"/>
<text text-anchor="middle" x="353" y="-113.8" font-family="Times,serif" font-size="14.00">Track</text>
<polyline fill="none" stroke="black" points="286.495,-107 419.505,-107 "/>
<text text-anchor="start" x="294.495" y="-91.8" font-family="Times,serif" font-size="14.00">id :integer</text>
<text text-anchor="start" x="294.495" y="-77.8" font-family="Times,serif" font-size="14.00">title :string</text>
<text text-anchor="start" x="294.495" y="-63.8" font-family="Times,serif" font-size="14.00">seconds :integer</text>
<text text-anchor="start" x="294.495" y="-49.8" font-family="Times,serif" font-size="14.00">released_on :date</text>
<text text-anchor="start" x="294.495" y="-35.8" font-family="Times,serif" font-size="14.00">band_id :integer</text>
<text text-anchor="start" x="294.495" y="-21.8" font-family="Times,serif" font-size="14.00">created_at :datetime</text>
<text text-anchor="start" x="294.495" y="-7.8" font-family="Times,serif" font-size="14.00">updated_at :datetime</text>
</g>
<!-- Album&#45;&gt;Track -->
<g id="edge3" class="edge"><title>Album&#45;&gt;Track</title>
<path fill="none" stroke="#2cc78e" d="M353,-315.672C353,-265.39 353,-193.076 353,-139.203"/>
<polygon fill="#2cc78e" stroke="#2cc78e" points="353,-315.696 348.5,-325.696 353,-320.696 353,-325.696 353,-325.696 353,-325.696 353,-320.696 357.5,-325.696 353,-315.696 353,-315.696"/>
<polygon fill="#2cc78e" stroke="#2cc78e" points="353,-139.028 357.5,-129.028 353,-134.028 353,-129.028 353,-129.028 353,-129.028 353,-134.028 348.5,-129.028 353,-139.028 353,-139.028"/>
</g>
<!-- Band&#45;&gt;Track -->
<g id="edge6" class="edge"><title>Band&#45;&gt;Track</title>
<path fill="none" stroke="#0f51e7" d="M296.236,-159.809C300.646,-152.522 305.166,-145.052 309.637,-137.663"/>
<ellipse fill="none" stroke="#0f51e7" cx="294.1" cy="-163.341" rx="4.00002" ry="4.00002"/>
<polygon fill="#0f51e7" stroke="#0f51e7" points="309.676,-137.598 318.703,-131.372 312.265,-133.32 314.853,-129.042 314.853,-129.042 314.853,-129.042 312.265,-133.32 311.003,-126.713 309.676,-137.598 309.676,-137.598"/>
</g>
<!-- ActiveRecord::Base -->
<g id="node6" class="node"><title>ActiveRecord::Base</title>
<ellipse fill="none" stroke="black" cx="306" cy="-507" rx="80.9821" ry="18"/>
<text text-anchor="middle" x="306" y="-502.8" font-family="Times,serif" font-size="14.00">ActiveRecord::Base</text>
</g>
<!-- ActiveRecord::Base&#45;&gt;Agent -->
<g id="edge2" class="edge"><title>ActiveRecord::Base&#45;&gt;Agent</title>
<path fill="none" stroke="black" d="M287.212,-489.4C271.039,-475.109 246.732,-453.633 223.684,-433.269"/>
</g>
<!-- ActiveRecord::Base&#45;&gt;Album -->
<g id="edge5" class="edge"><title>ActiveRecord::Base&#45;&gt;Album</title>
<path fill="none" stroke="black" d="M312.241,-488.87C318.059,-472.901 327.023,-448.298 335.064,-426.227"/>
</g>
<!-- ActiveRecord::Base&#45;&gt;Band -->
<g id="edge7" class="edge"><title>ActiveRecord::Base&#45;&gt;Band</title>
<path fill="none" stroke="black" d="M297.505,-489.01C290.761,-474.707 281.71,-453.519 277,-434 264.736,-383.175 260.251,-323.66 258.677,-281.166"/>
</g>
<!-- ActiveRecord::Base&#45;&gt;Track -->
<g id="edge8" class="edge"><title>ActiveRecord::Base&#45;&gt;Track</title>
<path fill="none" stroke="black" d="M351.58,-492.029C378.998,-481.005 411.659,-462.619 428,-434 483.205,-337.318 431.402,-205.893 390.778,-129.083"/>
</g>
</g>
</svg>
