<?xml version="1.0" encoding="UTF-8" standalone="no"?>
<!DOCTYPE svg PUBLIC "-//W3C//DTD SVG 1.1//EN"
 "http://www.w3.org/Graphics/SVG/1.1/DTD/svg11.dtd">
<!-- Generated by graphviz version 2.36.0 (20140111.2315)
 -->
<!-- Title: models_diagram Pages: 1 -->
<svg width="395pt" height="298pt"
 viewBox="0.00 0.00 395.00 298.00" xmlns="http://www.w3.org/2000/svg" xmlns:xlink="http://www.w3.org/1999/xlink">
<g id="graph0" class="graph" transform="scale(1 1) rotate(0) translate(4 294)">
<title>models_diagram</title>
<polygon fill="white" stroke="none" points="-4,4 -4,-294 391,-294 391,4 -4,4"/>
<!-- _diagram_info -->
<g id="node1" class="node"><title>_diagram_info</title>
<text text-anchor="start" x="7.31226" y="-275.1" font-family="Times,serif" font-size="13.00">Models diagram</text>
<text text-anchor="start" x="7.31226" y="-262.1" font-family="Times,serif" font-size="13.00">Date: Apr 24 2014 &#45; 16:04</text>
<text text-anchor="start" x="7.31226" y="-249.1" font-family="Times,serif" font-size="13.00">Migration version: 20140423235250</text>
<text text-anchor="start" x="7.31226" y="-236.1" font-family="Times,serif" font-size="13.00">Generated by RailRoady 1.1.1</text>
<text text-anchor="start" x="7.31226" y="-223.1" font-family="Times,serif" font-size="13.00">http://railroady.prestonlee.com</text>
</g>
<!-- Agent -->
<g id="node2" class="node"><title>Agent</title>
<ellipse fill="none" stroke="black" cx="214" cy="-162" rx="31.5774" ry="18"/>
<text text-anchor="middle" x="214" y="-157.8" font-family="Times,serif" font-size="14.00">Agent</text>
</g>
<!-- Band -->
<g id="node4" class="node"><title>Band</title>
<ellipse fill="none" stroke="black" cx="277" cy="-90" rx="28.1657" ry="18"/>
<text text-anchor="middle" x="277" y="-85.8" font-family="Times,serif" font-size="14.00">Band</text>
</g>
<!-- Agent&#45;&gt;Band -->
<g id="edge1" class="edge"><title>Agent&#45;&gt;Band</title>
<path fill="none" stroke="#6f51cd" d="M233.469,-139.367C240.845,-131.172 249.257,-121.826 256.707,-113.548"/>
<ellipse fill="none" stroke="#6f51cd" cx="230.658" cy="-142.492" rx="4.00002" ry="4.00002"/>
<polygon fill="#6f51cd" stroke="#6f51cd" points="256.8,-113.444 266.835,-109.022 260.145,-109.728 263.49,-106.011 263.49,-106.011 263.49,-106.011 260.145,-109.728 260.145,-103.001 256.8,-113.444 256.8,-113.444"/>
</g>
<!-- Album -->
<g id="node3" class="node"><title>Album</title>
<ellipse fill="none" stroke="black" cx="337" cy="-162" rx="34.5079" ry="18"/>
<text text-anchor="middle" x="337" y="-157.8" font-family="Times,serif" font-size="14.00">Album</text>
</g>
<!-- Album&#45;&gt;Band -->
<g id="edge4" class="edge"><title>Album&#45;&gt;Band</title>
<path fill="none" stroke="#41df5f" d="M316.686,-137.301C310.249,-129.79 303.145,-121.502 296.748,-114.039"/>
<polygon fill="#41df5f" stroke="#41df5f" points="316.877,-137.523 319.968,-148.044 320.131,-141.32 323.385,-145.116 323.385,-145.116 323.385,-145.116 320.131,-141.32 326.802,-142.187 316.877,-137.523 316.877,-137.523"/>
<polygon fill="#41df5f" stroke="#41df5f" points="296.657,-113.933 293.565,-103.412 293.403,-110.136 290.149,-106.34 290.149,-106.34 290.149,-106.34 293.403,-110.136 286.732,-109.269 296.657,-113.933 296.657,-113.933"/>
</g>
<!-- Track -->
<g id="node5" class="node"><title>Track</title>
<ellipse fill="none" stroke="black" cx="337" cy="-18" rx="30.1295" ry="18"/>
<text text-anchor="middle" x="337" y="-13.8" font-family="Times,serif" font-size="14.00">Track</text>
</g>
<!-- Album&#45;&gt;Track -->
<g id="edge3" class="edge"><title>Album&#45;&gt;Track</title>
<path fill="none" stroke="#3269bc" d="M337,-133.679C337,-108.599 337,-71.6271 337,-46.4929"/>
<polygon fill="#3269bc" stroke="#3269bc" points="337,-133.871 332.5,-143.871 337,-138.871 337,-143.871 337,-143.871 337,-143.871 337,-138.871 341.5,-143.872 337,-133.871 337,-133.871"/>
<polygon fill="#3269bc" stroke="#3269bc" points="337,-46.1893 341.5,-36.1892 337,-41.1893 337,-36.1893 337,-36.1893 337,-36.1893 337,-41.1893 332.5,-36.1893 337,-46.1893 337,-46.1893"/>
</g>
<!-- Band&#45;&gt;Track -->
<g id="edge6" class="edge"><title>Band&#45;&gt;Track</title>
<path fill="none" stroke="#e9a8fc" d="M295.428,-67.5007C302.249,-59.5433 310.012,-50.4863 316.968,-42.3705"/>
<ellipse fill="none" stroke="#e9a8fc" cx="292.622" cy="-70.774" rx="4.00002" ry="4.00002"/>
<polygon fill="#e9a8fc" stroke="#e9a8fc" points="317.083,-42.2366 327.008,-37.5726 320.337,-38.4403 323.591,-34.644 323.591,-34.644 323.591,-34.644 320.337,-38.4403 320.174,-31.7154 317.083,-42.2366 317.083,-42.2366"/>
</g>
<!-- ActiveRecord::Base -->
<g id="node6" class="node"><title>ActiveRecord::Base</title>
<ellipse fill="none" stroke="black" cx="306" cy="-253" rx="80.9821" ry="18"/>
<text text-anchor="middle" x="306" y="-248.8" font-family="Times,serif" font-size="14.00">ActiveRecord::Base</text>
</g>
<!-- ActiveRecord::Base&#45;&gt;Agent -->
<g id="edge2" class="edge"><title>ActiveRecord::Base&#45;&gt;Agent</title>
<path fill="none" stroke="black" d="M288.696,-235.26C271.623,-218.744 245.769,-193.733 229.392,-177.89"/>
</g>
<!-- ActiveRecord::Base&#45;&gt;Album -->
<g id="edge5" class="edge"><title>ActiveRecord::Base&#45;&gt;Album</title>
<path fill="none" stroke="black" d="M311.977,-234.84C317.502,-218.979 325.661,-195.553 331.146,-179.806"/>
</g>
<!-- ActiveRecord::Base&#45;&gt;Band -->
<g id="edge7" class="edge"><title>ActiveRecord::Base&#45;&gt;Band</title>
<path fill="none" stroke="black" d="M302.897,-234.834C300.261,-220.248 296.378,-198.751 293,-180 288.491,-154.97 283.281,-125.979 280.063,-108.063"/>
</g>
<!-- ActiveRecord::Base&#45;&gt;Track -->
<g id="edge8" class="edge"><title>ActiveRecord::Base&#45;&gt;Track</title>
<path fill="none" stroke="black" d="M331.063,-235.832C348.413,-223.037 370.099,-203.449 380,-180 401.496,-129.094 366.98,-64.5276 348.066,-35.0219"/>
</g>
</g>
</svg>
