<?xml version="1.0" encoding="UTF-8" standalone="no"?>
<!DOCTYPE svg PUBLIC "-//W3C//DTD SVG 1.1//EN"
 "http://www.w3.org/Graphics/SVG/1.1/DTD/svg11.dtd">
<!-- Generated by graphviz version 2.36.0 (20140111.2315)
 -->
<!-- Title: models_diagram Pages: 1 -->
<svg width="633pt" height="204pt"
 viewBox="0.00 0.00 633.01 204.00" xmlns="http://www.w3.org/2000/svg" xmlns:xlink="http://www.w3.org/1999/xlink">
<g id="graph0" class="graph" transform="scale(1 1) rotate(0) translate(4 200)">
<title>models_diagram</title>
<polygon fill="white" stroke="none" points="-4,4 -4,-200 629.008,-200 629.008,4 -4,4"/>
<!-- Agent -->
<g id="node1" class="node"><title>Agent</title>
<ellipse fill="none" stroke="black" cx="507.008" cy="-178" rx="31.5774" ry="18"/>
<text text-anchor="middle" x="507.008" y="-173.8" font-family="Times,serif" font-size="14.00">Agent</text>
</g>
<!-- Band -->
<g id="node4" class="node"><title>Band</title>
<ellipse fill="none" stroke="black" cx="435.008" cy="-92" rx="28.1657" ry="18"/>
<text text-anchor="middle" x="435.008" y="-87.8" font-family="Times,serif" font-size="14.00">Band</text>
</g>
<!-- Agent&#45;&gt;Band -->
<g id="edge1" class="edge"><title>Agent&#45;&gt;Band</title>
<path fill="none" stroke="#e3267c" d="M506.549,-151.53C505.352,-143.408 502.875,-134.779 498.008,-128 490.84,-118.016 479.898,-110.541 469.133,-105.12"/>
<ellipse fill="none" stroke="#e3267c" cx="506.975" cy="-155.733" rx="4" ry="4"/>
<polygon fill="#e3267c" stroke="#e3267c" points="468.916,-105.021 461.685,-96.7777 464.367,-102.947 459.818,-100.872 459.818,-100.872 459.818,-100.872 464.367,-102.947 457.951,-104.967 468.916,-105.021 468.916,-105.021"/>
</g>
<!-- Album -->
<g id="node2" class="node"><title>Album</title>
<ellipse fill="none" stroke="black" cx="591.008" cy="-178" rx="34.5079" ry="18"/>
<text text-anchor="middle" x="591.008" y="-173.8" font-family="Times,serif" font-size="14.00">Album</text>
</g>
<!-- Album&#45;&gt;Band -->
<g id="edge3" class="edge"><title>Album&#45;&gt;Band</title>
<path fill="none" stroke="#7840e2" d="M562.944,-157.372C548.878,-147.934 531.389,-136.791 515.008,-128 500.03,-119.962 482.826,-112.251 468.219,-106.123"/>
<polygon fill="#7840e2" stroke="#7840e2" points="562.947,-157.374 568.692,-166.715 567.083,-160.183 571.22,-162.992 571.22,-162.992 571.22,-162.992 567.083,-160.183 573.748,-159.269 562.947,-157.374 562.947,-157.374"/>
<polygon fill="#7840e2" stroke="#7840e2" points="467.825,-105.96 460.296,-97.9877 463.203,-104.054 458.58,-102.148 458.58,-102.148 458.58,-102.148 463.203,-104.054 456.865,-106.308 467.825,-105.96 467.825,-105.96"/>
</g>
<!-- Track -->
<g id="node7" class="node"><title>Track</title>
<ellipse fill="none" stroke="black" cx="528.008" cy="-18" rx="30.1295" ry="18"/>
<text text-anchor="middle" x="528.008" y="-13.8" font-family="Times,serif" font-size="14.00">Track</text>
</g>
<!-- Album&#45;&gt;Track -->
<g id="edge2" class="edge"><title>Album&#45;&gt;Track</title>
<path fill="none" stroke="#a2808a" d="M580.529,-150.719C568.878,-121.498 550.168,-74.577 538.509,-45.3351"/>
<polygon fill="#a2808a" stroke="#a2808a" points="580.562,-150.802 580.086,-161.758 582.414,-155.447 584.266,-160.091 584.266,-160.091 584.266,-160.091 582.414,-155.447 588.446,-158.425 580.562,-150.802 580.562,-150.802"/>
<polygon fill="#a2808a" stroke="#a2808a" points="538.405,-45.076 538.882,-34.1205 536.554,-40.4316 534.702,-35.7872 534.702,-35.7872 534.702,-35.7872 536.554,-40.4316 530.522,-37.4539 538.405,-45.076 538.405,-45.076"/>
</g>
<!-- Artist -->
<g id="node3" class="node"><title>Artist</title>
<ellipse fill="none" stroke="black" cx="275.008" cy="-178" rx="29.8792" ry="18"/>
<text text-anchor="middle" x="275.008" y="-173.8" font-family="Times,serif" font-size="14.00">Artist</text>
</g>
<!-- Artist&#45;&gt;Band -->
<g id="edge8" class="edge"><title>Artist&#45;&gt;Band</title>
<path fill="none" stroke="#213437" d="M290.084,-152.217C296.493,-143.469 304.658,-134.261 314.008,-128 338.921,-111.317 371.857,-102.465 397.076,-97.8403"/>
<polygon fill="#213437" stroke="#213437" points="289.934,-152.437 280.569,-158.143 287.107,-156.562 284.281,-160.686 284.281,-160.686 284.281,-160.686 287.107,-156.562 287.993,-163.23 289.934,-152.437 289.934,-152.437"/>
<polygon fill="#213437" stroke="#213437" points="397.158,-97.8264 407.768,-100.597 402.089,-96.9934 407.019,-96.1603 407.019,-96.1603 407.019,-96.1603 402.089,-96.9934 406.269,-91.7232 397.158,-97.8264 397.158,-97.8264"/>
</g>
<!-- Artist&#45;&gt;Band -->
<g id="edge9" class="edge"><title>Artist&#45;&gt;Band</title>
<path fill="none" stroke="#d72110" d="M297.222,-155.157C307.641,-145.817 320.625,-135.387 333.704,-128 354.218,-116.414 379.219,-107.727 399.252,-101.906"/>
<polygon fill="#d72110" stroke="#d72110" points="297.141,-155.232 286.742,-158.713 293.469,-158.625 289.796,-162.018 289.796,-162.018 289.796,-162.018 293.469,-158.625 292.85,-165.323 297.141,-155.232 297.141,-155.232"/>
<polygon fill="#d72110" stroke="#d72110" points="399.303,-101.892 410.145,-103.535 404.119,-100.546 408.934,-99.2006 408.934,-99.2006 408.934,-99.2006 404.119,-100.546 407.723,-94.8666 399.303,-101.892 399.303,-101.892"/>
<text text-anchor="middle" x="373.66" y="-130.8" font-family="Times,serif" font-size="14.00">current_bands</text>
</g>
<!-- Artist&#45;&gt;Band -->
<g id="edge10" class="edge"><title>Artist&#45;&gt;Band</title>
<path fill="none" stroke="#9b61c1" d="M315.475,-175.91C345.485,-173.106 385.75,-164.894 413.008,-142 419.811,-136.287 424.597,-128.04 427.925,-119.937"/>
<polygon fill="#9b61c1" stroke="#9b61c1" points="315.297,-175.923 304.981,-172.204 310.312,-176.307 305.327,-176.691 305.327,-176.691 305.327,-176.691 310.312,-176.307 305.672,-181.178 315.297,-175.923 315.297,-175.923"/>
<polygon fill="#9b61c1" stroke="#9b61c1" points="427.994,-119.741 435.547,-111.791 429.647,-115.022 431.3,-110.303 431.3,-110.303 431.3,-110.303 429.647,-115.022 427.053,-108.815 427.994,-119.741 427.994,-119.741"/>
<text text-anchor="middle" x="455.115" y="-130.8" font-family="Times,serif" font-size="14.00">past_bands</text>
</g>
<!-- Stint -->
<g id="node5" class="node"><title>Stint</title>
<ellipse fill="none" stroke="black" cx="202.008" cy="-18" rx="27" ry="18"/>
<text text-anchor="middle" x="202.008" y="-13.8" font-family="Times,serif" font-size="14.00">Stint</text>
</g>
<!-- Artist&#45;&gt;Stint -->
<g id="edge5" class="edge"><title>Artist&#45;&gt;Stint</title>
<path fill="none" stroke="#99c0ce" d="M236.921,-173.489C169.482,-166.357 33.7122,-147.566 7.80101,-110 -32.9364,-50.9394 97.682,-29.2319 164.777,-22.1074"/>
<ellipse fill="none" stroke="#99c0ce" cx="241.206" cy="-173.93" rx="4" ry="4"/>
<polygon fill="#99c0ce" stroke="#99c0ce" points="165.014,-22.0837 175.413,-25.5632 169.989,-21.5847 174.964,-21.0856 174.964,-21.0856 174.964,-21.0856 169.989,-21.5847 174.515,-16.6081 165.014,-22.0837 165.014,-22.0837"/>
<text text-anchor="middle" x="46.1116" y="-87.8" font-family="Times,serif" font-size="14.00">current_stints</text>
</g>
<!-- Artist&#45;&gt;Stint -->
<g id="edge6" class="edge"><title>Artist&#45;&gt;Stint</title>
<path fill="none" stroke="#2b4485" d="M237.201,-172.998C199.035,-166.72 141.977,-150.696 114.891,-110 106.026,-96.6805 107.166,-88.0119 114.891,-74 126.341,-53.23 149.302,-39.2205 168.777,-30.5404"/>
<ellipse fill="none" stroke="#2b4485" cx="241.56" cy="-173.661" rx="4.00001" ry="4.00001"/>
<polygon fill="#2b4485" stroke="#2b4485" points="169.044,-30.4296 180.005,-30.7456 173.661,-28.51 178.277,-26.5904 178.277,-26.5904 178.277,-26.5904 173.661,-28.51 176.55,-22.4352 169.044,-30.4296 169.044,-30.4296"/>
<text text-anchor="middle" x="144.567" y="-87.8" font-family="Times,serif" font-size="14.00">past_stints</text>
</g>
<!-- Artist&#45;&gt;Stint -->
<g id="edge7" class="edge"><title>Artist&#45;&gt;Stint</title>
<path fill="none" stroke="#04a1d8" d="M282.865,-152.378C288.345,-130.527 292.649,-98.3814 280.008,-74 270.291,-55.2585 250.926,-41.5488 233.924,-32.5045"/>
<ellipse fill="none" stroke="#04a1d8" cx="281.787" cy="-156.35" rx="4.00001" ry="4.00001"/>
<polygon fill="#04a1d8" stroke="#04a1d8" points="233.748,-32.4169 226.804,-23.9297 229.273,-30.1872 224.797,-27.9575 224.797,-27.9575 224.797,-27.9575 229.273,-30.1872 222.791,-31.9853 233.748,-32.4169 233.748,-32.4169"/>
</g>
<!-- SuperFan -->
<g id="node6" class="node"><title>SuperFan</title>
<ellipse fill="none" stroke="black" cx="227.008" cy="-92" rx="44.0058" ry="18"/>
<text text-anchor="middle" x="227.008" y="-87.8" font-family="Times,serif" font-size="14.00">SuperFan</text>
</g>
<!-- Artist&#45;&gt;SuperFan -->
<g id="edge4" class="edge"><title>Artist&#45;&gt;SuperFan</title>
<path fill="none" stroke="#75084f" d="M261.783,-153.855C255.539,-142.929 248.067,-129.853 241.652,-118.628"/>
<ellipse fill="none" stroke="#75084f" cx="263.769" cy="-157.331" rx="4.00002" ry="4.00002"/>
<polygon fill="#75084f" stroke="#75084f" points="241.524,-118.404 240.47,-107.489 239.044,-114.062 236.563,-109.721 236.563,-109.721 236.563,-109.721 239.044,-114.062 232.656,-111.954 241.524,-118.404 241.524,-118.404"/>
</g>
<!-- Band&#45;&gt;Stint -->
<g id="edge12" class="edge"><title>Band&#45;&gt;Stint</title>
<path fill="none" stroke="#b665fd" d="M402.25,-80.8773C358.235,-67.2761 280.398,-43.2234 235.84,-29.4546"/>
<ellipse fill="none" stroke="#b665fd" cx="406.251" cy="-82.1138" rx="4.00001" ry="4.00001"/>
<polygon fill="#b665fd" stroke="#b665fd" points="235.62,-29.3865 227.394,-22.1347 230.843,-27.9103 226.066,-26.4341 226.066,-26.4341 226.066,-26.4341 230.843,-27.9103 224.737,-30.7335 235.62,-29.3865 235.62,-29.3865"/>
</g>
<!-- Band&#45;&gt;Track -->
<g id="edge11" class="edge"><title>Band&#45;&gt;Track</title>
<path fill="none" stroke="#cda25c" d="M459.046,-72.39C472.308,-62.1226 488.778,-49.3713 502.297,-38.9053"/>
<ellipse fill="none" stroke="#cda25c" cx="455.664" cy="-75.0086" rx="4.00002" ry="4.00002"/>
<polygon fill="#cda25c" stroke="#cda25c" points="502.37,-38.8485 513.032,-36.285 506.324,-35.7876 510.278,-32.7267 510.278,-32.7267 510.278,-32.7267 506.324,-35.7876 507.523,-29.1685 502.37,-38.8485 502.37,-38.8485"/>
</g>
</g>
</svg>
